<?xml version="1.0" encoding="utf-8"?>
<!-- Generator: Adobe Illustrator 17.0.0, SVG Export Plug-In . SVG Version: 6.00 Build 0)  -->
<!DOCTYPE svg PUBLIC "-//W3C//DTD SVG 1.1//EN" "http://www.w3.org/Graphics/SVG/1.1/DTD/svg11.dtd">
<svg version="1.1" id="fa5e9963-be56-4fcb-a961-77b5aada95f1"
	 xmlns="http://www.w3.org/2000/svg" xmlns:xlink="http://www.w3.org/1999/xlink" x="0px" y="0px" width="1013.58px"
	 height="769.76px" viewBox="0 0 1013.58 769.76" enable-background="new 0 0 1013.58 769.76" xml:space="preserve">
<title>buffer</title>
<path opacity="0.1" fill="#5263F3" enable-background="new    " d="M935.22,718.22L831.5,538.57
	c-0.904-1.582-2.92-2.132-4.503-1.227c-0.511,0.292-0.935,0.716-1.227,1.227L722.05,718.22c-0.939,1.562-0.434,3.59,1.128,4.529
	c0.523,0.314,1.122,0.477,1.732,0.471h30.94c1.826,0.005,3.305,1.484,3.31,3.31v38.35c0,1.824,1.476,3.305,3.3,3.31h40.33
	c1.828,0,3.31-1.482,3.31-3.31v-18.54c0-1.823,1.477-3.3,3.3-3.3h38.39c1.824,0,3.305,1.476,3.31,3.3v18.54
	c0,1.828,1.482,3.31,3.31,3.31h40.38c1.828,0,3.31-1.482,3.31-3.31v-38.39c0-1.828,1.482-3.31,3.31-3.31h30.94
	c1.828,0,3.31-1.481,3.311-3.309C935.661,719.291,935.509,718.722,935.22,718.22z M790.61,738.1c-0.615,0.633-1.458,0.993-2.34,1
	h-14.56c-1.828-0.002-3.308-1.486-3.306-3.314c0.002-1.825,1.481-3.304,3.306-3.306h14.56c1.828,0.001,3.31,1.483,3.309,3.311
	c0,0.877-0.349,1.719-0.969,2.339V738.1z M885.89,738.1c-0.615,0.633-1.458,0.993-2.34,1H869c-1.828-0.002-3.308-1.486-3.306-3.314
	c0.002-1.825,1.481-3.304,3.306-3.306h14.55c1.828,0.001,3.31,1.483,3.309,3.311c0,0.877-0.349,1.719-0.969,2.339L885.89,738.1z"/>
<path opacity="0.1" fill="#5263F3" enable-background="new    " d="M294.13,719.8L190.41,540.15
	c-0.915-1.582-2.94-2.123-4.523-1.207c-0.501,0.29-0.917,0.706-1.207,1.207L95.09,695.32c11.205,14.107,23.776,27.073,37.53,38.71
	h14.56c1.828,0.002,3.308,1.486,3.306,3.314c-0.002,1.825-1.481,3.304-3.306,3.306h-6.16c7.545,5.674,15.576,10.67,24,14.93v-7.65
	c0-1.828,1.482-3.31,3.31-3.31h38.46c1.824,0.005,3.3,1.486,3.3,3.31v18.52c-0.002,0.481,0.104,0.956,0.31,1.39
	c0.541,1.169,1.712,1.918,3,1.92h40.37c1.039,0.004,2.017-0.491,2.63-1.33c0.444-0.571,0.681-1.277,0.67-2v-38.35
	c0-1.828,1.482-3.31,3.31-3.31h30.94c1.828-0.029,3.286-1.535,3.256-3.363C294.567,720.842,294.413,720.289,294.13,719.8z
	 M225.57,735c0.615-0.633,1.458-0.993,2.34-1h14.56c1.828,0.002,3.308,1.486,3.306,3.314c-0.002,1.825-1.481,3.304-3.306,3.306
	h-14.56c-1.828-0.001-3.31-1.483-3.309-3.311c0-0.877,0.349-1.719,0.969-2.339V735z M160.42,668.52c-1.828,0-3.31-1.482-3.31-3.31
	v-25.14c0-1.828,1.482-3.31,3.31-3.31h54.26c1.824,0.005,3.3,1.486,3.3,3.31v25.14c0,1.824-1.476,3.305-3.3,3.31H160.42z"/>
<path opacity="0.1" fill="#5263F3" enable-background="new    " d="M704.11,397.08H575.79v-27.76c0-3.667-2.973-6.64-6.64-6.64l0,0
	h-37.72v-29.57c0-2.309-1.871-4.18-4.18-4.18H478.7c-2.309,0-4.18,1.871-4.18,4.18v29.57h-44.31c-3.667,0-6.64,2.973-6.64,6.64v0
	v27.76H301.18c-0.742,0.005-1.34,0.608-1.34,1.35v368.52c0,0.742,0.598,1.344,1.34,1.35h81.34c0.746,0,1.35-0.604,1.35-1.35v-49.58
	c0.005-0.743,0.607-1.345,1.35-1.35h34.36c0.743,0.005,1.345,0.607,1.35,1.35v49.58c0,0.742,0.598,1.344,1.34,1.35h160.75
	c0.743-0.005,1.345-0.607,1.35-1.35v-49.58c0-0.742,0.598-1.344,1.34-1.35h34.36c0.746,0,1.35,0.604,1.35,1.35v49.58
	c0.005,0.743,0.607,1.345,1.35,1.35h81.34c0.743-0.005,1.345-0.607,1.35-1.35V398.43C705.454,397.687,704.853,397.086,704.11,397.08
	z M369.31,698.8c0,0.74-0.6,1.34-1.34,1.34h0h-50.24c-0.74,0.006-1.344-0.59-1.35-1.33c0-0.003,0-0.007,0-0.01v-17.16
	c0-0.746,0.604-1.35,1.35-1.35h50.24c0.742,0.005,1.34,0.608,1.34,1.35V698.8z M369.31,654.46c0.006,0.74-0.59,1.344-1.33,1.35
	c-0.003,0-0.007,0-0.01,0h-50.24c-0.74,0.006-1.344-0.59-1.35-1.33c0-0.007,0-0.013,0-0.02v-17.15c-0.006-0.74,0.59-1.344,1.33-1.35
	c0.007,0,0.013,0,0.02,0h50.24c0.74,0,1.34,0.6,1.34,1.34c0,0.003,0,0.007,0,0.01V654.46z M369.31,610.13
	c0,0.742-0.598,1.344-1.34,1.35h-50.24c-0.746,0-1.35-0.604-1.35-1.35v-17.16c0-0.746,0.604-1.35,1.35-1.35h50.24
	c0.742,0.005,1.34,0.608,1.34,1.35V610.13z M369.31,565.79c0.006,0.74-0.59,1.344-1.33,1.35c-0.003,0-0.007,0-0.01,0h-50.24
	c-0.74,0.006-1.344-0.59-1.35-1.33c0-0.007,0-0.013,0-0.02v-17.15c-0.006-0.74,0.59-1.344,1.33-1.35c0.007,0,0.013,0,0.02,0h50.24
	c0.74,0,1.34,0.6,1.34,1.34c0,0.003,0,0.007,0,0.01V565.79z M369.31,521.46c0,0.742-0.598,1.344-1.34,1.35h-50.24
	c-0.746,0-1.35-0.604-1.35-1.35V504.3c0-0.74,0.6-1.34,1.34-1.34c0.003,0,0.007,0,0.01,0h50.24c0.74,0,1.34,0.6,1.34,1.34l0,0
	V521.46z M369.31,477.13c0,0.74-0.6,1.34-1.34,1.34h0h-50.24c-0.74,0.006-1.344-0.59-1.35-1.33c0-0.003,0-0.007,0-0.01v-17.16
	c0-0.746,0.604-1.35,1.35-1.35h50.24c0.742,0.005,1.34,0.608,1.34,1.35V477.13z M369.31,432.79c0.006,0.74-0.59,1.344-1.33,1.35
	c-0.003,0-0.007,0-0.01,0h-50.24c-0.74,0.006-1.344-0.59-1.35-1.33c0-0.007,0-0.013,0-0.02v-17.15c-0.006-0.74,0.59-1.344,1.33-1.35
	c0.007,0,0.013,0,0.02,0h50.24c0.74,0,1.34,0.6,1.34,1.34c0,0.003,0,0.007,0,0.01V432.79z M488.42,698.79c0,0.74-0.6,1.34-1.34,1.34
	c-0.003,0-0.007,0-0.01,0h-50.28c-0.742,0-1.344-0.598-1.35-1.34v-17.15c0.005-0.743,0.607-1.345,1.35-1.35h50.24
	c0.746,0,1.35,0.604,1.35,1.35L488.42,698.79z M488.42,654.45c0.006,0.74-0.59,1.344-1.33,1.35c-0.007,0-0.013,0-0.02,0h-50.28
	c-0.746,0-1.35-0.604-1.35-1.35v-17.14c0-0.746,0.604-1.35,1.35-1.35h50.24c0.74-0.006,1.344,0.59,1.35,1.33c0,0.007,0,0.013,0,0.02
	L488.42,654.45z M488.42,610.12c0,0.746-0.604,1.35-1.35,1.35h-50.28c-0.743-0.005-1.345-0.607-1.35-1.35v-17.15
	c0.005-0.743,0.607-1.345,1.35-1.35h50.24c0.746,0,1.35,0.604,1.35,1.35L488.42,610.12z M488.42,565.78
	c0.006,0.74-0.59,1.344-1.33,1.35c-0.007,0-0.013,0-0.02,0h-50.28c-0.746,0-1.35-0.604-1.35-1.35v-17.14
	c0-0.746,0.604-1.35,1.35-1.35h50.24c0.74-0.006,1.344,0.59,1.35,1.33c0,0.007,0,0.013,0,0.02L488.42,565.78z M488.42,521.45
	c0,0.746-0.604,1.35-1.35,1.35h-50.28c-0.743-0.005-1.345-0.607-1.35-1.35V504.3c0.005-0.742,0.608-1.34,1.35-1.34h50.24
	c0.74-0.005,1.344,0.59,1.35,1.33c0,0.003,0,0.007,0,0.01L488.42,521.45z M488.42,477.12c0,0.74-0.6,1.34-1.34,1.34
	c-0.003,0-0.007,0-0.01,0h-50.28c-0.742,0-1.344-0.598-1.35-1.34v-17.15c0.005-0.743,0.607-1.345,1.35-1.35h50.24
	c0.746,0,1.35,0.604,1.35,1.35L488.42,477.12z M488.42,432.78c0.006,0.74-0.59,1.344-1.33,1.35c-0.007,0-0.013,0-0.02,0h-50.28
	c-0.746,0-1.35-0.604-1.35-1.35v-17.14c0-0.746,0.604-1.35,1.35-1.35h50.24c0.74-0.006,1.344,0.59,1.35,1.33c0,0.007,0,0.013,0,0.02
	L488.42,432.78z M569.81,698.78c0,0.74-0.6,1.34-1.34,1.34c-0.003,0-0.007,0-0.01,0h-50.24c-0.742,0-1.344-0.598-1.35-1.34v-17.14
	c0.005-0.743,0.607-1.345,1.35-1.35h50.24c0.746,0,1.35,0.604,1.35,1.35L569.81,698.78z M569.81,654.44
	c0.006,0.74-0.59,1.344-1.33,1.35c-0.007,0-0.013,0-0.02,0h-50.24c-0.746,0-1.35-0.604-1.35-1.35v-17.13
	c0-0.746,0.604-1.35,1.35-1.35h50.24c0.74-0.006,1.344,0.59,1.35,1.33c0,0.007,0,0.013,0,0.02L569.81,654.44z M569.81,610.11
	c0,0.746-0.604,1.35-1.35,1.35h-50.24c-0.743-0.005-1.345-0.607-1.35-1.35v-17.14c0.005-0.743,0.607-1.345,1.35-1.35h50.24
	c0.746,0,1.35,0.604,1.35,1.35L569.81,610.11z M569.81,565.77c0.006,0.74-0.59,1.344-1.33,1.35c-0.007,0-0.013,0-0.02,0h-50.24
	c-0.746,0-1.35-0.604-1.35-1.35v-17.13c0-0.746,0.604-1.35,1.35-1.35h50.24c0.74-0.006,1.344,0.59,1.35,1.33c0,0.007,0,0.013,0,0.02
	L569.81,565.77z M569.81,521.44c0,0.746-0.604,1.35-1.35,1.35h-50.24c-0.743-0.005-1.345-0.607-1.35-1.35V504.3
	c0.005-0.742,0.608-1.34,1.35-1.34h50.24c0.74-0.005,1.344,0.59,1.35,1.33c0,0.003,0,0.007,0,0.01L569.81,521.44z M569.81,477.11
	c0,0.74-0.6,1.34-1.34,1.34c-0.003,0-0.007,0-0.01,0h-50.24c-0.742,0-1.344-0.598-1.35-1.34v-17.14
	c0.005-0.743,0.607-1.345,1.35-1.35h50.24c0.746,0,1.35,0.604,1.35,1.35L569.81,477.11z M569.81,432.77
	c0.006,0.74-0.59,1.344-1.33,1.35c-0.007,0-0.013,0-0.02,0h-50.24c-0.746,0-1.35-0.604-1.35-1.35v-17.13
	c0-0.746,0.604-1.35,1.35-1.35h50.24c0.74-0.006,1.344,0.59,1.35,1.33c0,0.007,0,0.013,0,0.02L569.81,432.77z M688.92,698.77
	c-0.005,0.742-0.608,1.34-1.35,1.34h-50.24c-0.74,0.005-1.344-0.59-1.35-1.33c0-0.003,0-0.007,0-0.01v-17.13
	c0-0.746,0.604-1.35,1.35-1.35h50.24c0.743,0.005,1.345,0.607,1.35,1.35L688.92,698.77z M688.92,654.43
	c0,0.746-0.604,1.35-1.35,1.35h-50.24c-0.74,0.006-1.344-0.59-1.35-1.33c0-0.007,0-0.013,0-0.02v-17.12
	c-0.006-0.74,0.59-1.344,1.33-1.35c0.007,0,0.013,0,0.02,0h50.24c0.746,0,1.35,0.604,1.35,1.35L688.92,654.43z M688.92,610.1
	c-0.005,0.743-0.607,1.345-1.35,1.35h-50.24c-0.746,0-1.35-0.604-1.35-1.35v-17.13c0-0.746,0.604-1.35,1.35-1.35h50.24
	c0.743,0.005,1.345,0.607,1.35,1.35L688.92,610.1z M688.92,565.76c0,0.746-0.604,1.35-1.35,1.35h-50.24
	c-0.74,0.006-1.344-0.59-1.35-1.33c0-0.007,0-0.013,0-0.02v-17.12c-0.006-0.74,0.59-1.344,1.33-1.35c0.007,0,0.013,0,0.02,0h50.24
	c0.746,0,1.35,0.604,1.35,1.35L688.92,565.76z M688.92,521.43c-0.005,0.743-0.607,1.345-1.35,1.35h-50.24
	c-0.746,0-1.35-0.604-1.35-1.35V504.3c0-0.74,0.6-1.34,1.34-1.34c0.003,0,0.007,0,0.01,0h50.24c0.742,0,1.344,0.598,1.35,1.34
	L688.92,521.43z M688.92,477.1c-0.005,0.742-0.608,1.34-1.35,1.34h-50.24c-0.74,0.005-1.344-0.59-1.35-1.33c0-0.003,0-0.007,0-0.01
	v-17.13c0-0.746,0.604-1.35,1.35-1.35h50.24c0.743,0.005,1.345,0.607,1.35,1.35L688.92,477.1z M688.92,432.76
	c0,0.746-0.604,1.35-1.35,1.35h-50.24c-0.74,0.006-1.344-0.59-1.35-1.33c0-0.007,0-0.013,0-0.02v-17.12
	c-0.006-0.74,0.59-1.344,1.33-1.35c0.007,0,0.013,0,0.02,0h50.24c0.746,0,1.35,0.604,1.35,1.35L688.92,432.76z"/>
<g opacity="0.1">
	<path fill="#3F3D56" d="M89.93,644.6c0.041,4.34-1.074,8.613-3.23,12.38c4.307,7.692,4.307,17.068,0,24.76
		c1.095,1.873,1.917,3.894,2.44,6c-10.916-14.388-20.964-29.415-30.09-45l0,0c0.22-3.717,1.302-7.333,3.16-10.56
		c-2.143-3.743-3.257-7.987-3.23-12.3c-0.013-2.933,0.481-5.846,1.46-8.61c0.466-1.311,1.059-2.574,1.77-3.77
		c2.82-4.79,7.26-7.88,12.24-7.88s9.43,3.09,12.25,7.88c0.686,1.162,1.265,2.383,1.73,3.65c1.003,2.801,1.51,5.755,1.5,8.73
		c0.041,4.34-1.074,8.613-3.23,12.38C88.85,636.015,89.964,640.273,89.93,644.6z"/>
	<ellipse fill="#3F3D56" cx="74.45" cy="595.08" rx="15.47" ry="20.26"/>
	<ellipse fill="#3F3D56" cx="74.45" cy="570.32" rx="15.47" ry="20.26"/>
	<path fill="#5263F3" d="M148.25,446.71c0.026,16.629-5.567,32.778-15.87,45.83c25.309,32.181,19.738,78.786-12.442,104.095
		c-9.225,7.255-20.041,12.216-31.558,14.475c-1.78,0.36-3.59,0.64-5.42,0.86c-5.645,0.675-11.348,0.705-17,0.09
		c-1.88-0.2-3.737-0.477-5.57-0.83c-8.084-1.494-15.859-4.337-23-8.41c-13.345-27.201-25.004-55.197-34.91-83.83
		c2.598-9.624,7.119-18.622,13.29-26.45C0.289,472.843-4.205,446.663,3.82,422.93l56.28,18.89L7.32,414.4
		c2.353-4.8,5.216-9.333,8.54-13.52c-25.317-32.175-19.758-78.781,12.417-104.098c32.175-25.317,78.781-19.758,104.098,12.417
		c2.177,2.766,4.153,5.684,5.915,8.731l-54.41,40l59-30.6c7.624,18.939,7.111,40.182-1.42,58.73l-44-0.33l40.66,6.68
		c-1.726,2.956-3.654,5.789-5.77,8.48C142.661,413.936,148.263,430.082,148.25,446.71z"/>
	<path opacity="0.1" enable-background="new    " d="M148.25,538.37c-0.006,35.423-25.065,65.894-59.82,72.74
		c-1.78,0.36-3.59,0.64-5.42,0.86c-5.645,0.675-11.348,0.705-17,0.09c-1.88-0.2-3.737-0.477-5.57-0.83
		c-8.084-1.494-15.859-4.337-23-8.41c-13.345-27.201-25.004-55.197-34.91-83.83c2.598-9.624,7.119-18.622,13.29-26.45
		C5.524,479.485-0.065,463.337-0.04,446.71c0-8.32,142.32,33.22,132.38,45.83C142.658,505.586,148.264,521.737,148.25,538.37z"/>
</g>
<g opacity="0.1">
	<path fill="#3F3D56" d="M982.48,625.32c-2.9,9.26-6,18.45-9.18,27.43c-0.883-2.647-1.329-5.42-1.32-8.21
		C971.98,635.61,976.38,628.02,982.48,625.32z"/>
	<path fill="#5263F3" d="M1013.58,465.75c0,17.56-3.54,45.28-10,77c-5.659,27.861-12.718,55.419-21.15,82.57
		c-2.9,9.26-6,18.45-9.18,27.43c-3.65,10.19-7.5,20.11-11.53,29.6c-38.574-14.156-58.369-56.903-44.213-95.477
		c2.683-7.311,6.497-14.155,11.303-20.283c-15.5-19.749-20.011-45.977-12-69.77l56.28,18.93l-52.78-27.48
		c2.324-4.806,5.157-9.348,8.45-13.55c-25.356-32.326-19.706-79.087,12.621-104.444c5.054-3.964,10.6-7.257,16.499-9.796
		c22.717,15.498,39.817,37.922,48.75,63.93l-9.85,7.25l10.46-5.43c3.509,10.785,5.557,21.991,6.09,33.32h-2.94l3,0.49
		C1013.54,461.88,1013.58,463.88,1013.58,465.75z"/>
	<path opacity="0.1" enable-background="new    " d="M1003.63,542.75c-5.659,27.861-12.718,55.419-21.15,82.57
		c-2.9,9.26-6,18.45-9.18,27.43c-3.65,10.19-7.5,20.11-11.53,29.6c-38.574-14.156-58.369-56.903-44.213-95.477
		c2.683-7.311,6.497-14.155,11.303-20.283c-10.3-13.096-15.887-29.279-15.86-45.94C913,515.62,964.72,528.76,1003.63,542.75z"/>
</g>
<path opacity="0.1" fill="#5263F3" enable-background="new    " d="M323.53,123.19c-5.638-1.065-11.465-0.428-16.74,1.83
	c-6.409,2.86-13.731,2.86-20.14,0c-7.58-3.321-16.235-3.153-23.68,0.46c-2.101,1.116-4.442,1.702-6.82,1.71
	c-9.6,0-17.59-9.67-19.25-22.43c1.916-1.404,3.546-3.162,4.8-5.18c5.63-9.07,14.35-14.89,24.14-14.89s18.4,5.75,24,14.73
	c3.43,5.49,9.477,8.792,15.95,8.71h0.25C313.69,108.13,320.31,114.26,323.53,123.19z"/>
<path opacity="0.1" fill="#5263F3" enable-background="new    " d="M352.79,83.14l-15.52,9.85l9.41-17.11
	c-2.672-2.127-5.975-3.305-9.39-3.35h-0.25c-1.078,0.019-2.156-0.058-3.22-0.23l-5.26,3.33l2.26-4.1c-3.73-1.302-6.951-3.753-9.2-7
	l-9.42,6l5.95-10.81c-5.51-6.61-12.93-10.67-21.09-10.67c-9.79,0-18.51,5.83-24.14,14.9c-3.39,5.545-9.505,8.832-16,8.6h-0.53
	c-10.81,0-19.57,12.26-19.57,27.37s8.76,27.37,19.57,27.37c2.377-0.008,4.717-0.591,6.82-1.7c7.442-3.622,16.1-3.794,23.68-0.47
	c6.402,2.876,13.724,2.894,20.14,0.05c7.522-3.259,16.088-3.095,23.48,0.45c2.08,1.089,4.392,1.661,6.74,1.67
	c10.81,0,19.57-12.25,19.57-27.37C356.909,94.077,355.523,88.306,352.79,83.14z"/>
<path opacity="0.1" fill="#5263F3" enable-background="new    " d="M768.53,286.67c-3.954-0.75-8.041-0.305-11.74,1.28
	c-4.486,2.006-9.614,2.006-14.1,0c-5.307-2.324-11.366-2.207-16.58,0.32c-1.47,0.78-3.106,1.191-4.77,1.2
	c-6.72,0-12.31-6.78-13.47-15.71c1.342-0.98,2.483-2.209,3.36-3.62c3.94-6.35,10-10.42,16.89-10.42s12.89,4,16.83,10.3
	c2.394,3.854,6.623,6.181,11.16,6.14h0.18C761.64,276.13,766.27,280.42,768.53,286.67z"/>
<path opacity="0.1" fill="#5263F3" enable-background="new    " d="M789,258.64l-10.86,6.89l6.59-12
	c-1.866-1.496-4.179-2.324-6.57-2.35h-0.17c-0.754,0.019-1.508-0.038-2.25-0.17l-3.69,2.34l1.58-2.87
	c-2.608-0.912-4.861-2.623-6.44-4.89l-6.59,4.18l4.16-7.57c-3.85-4.62-9.05-7.46-14.76-7.46c-6.85,0-13,4.07-16.9,10.42
	c-2.38,3.856-6.641,6.145-11.17,6h-0.37c-7.56,0-13.7,8.58-13.7,19.16s6.14,19.16,13.7,19.16c1.664-0.004,3.302-0.416,4.77-1.2
	c5.214-2.527,11.273-2.644,16.58-0.32c2.231,0.996,4.646,1.514,7.09,1.52c2.412-0.003,4.796-0.511,7-1.49
	c5.264-2.28,11.259-2.163,16.43,0.32c1.457,0.763,3.076,1.165,4.72,1.17c7.57,0,13.7-8.58,13.7-19.16
	C791.891,266.25,790.911,262.234,789,258.64z"/>
<path opacity="0.1" fill="#5263F3" enable-background="new    " d="M191.2,241.67c3.954-0.75,8.041-0.304,11.74,1.28
	c4.482,2.007,9.608,2.007,14.09,0c5.307-2.324,11.366-2.207,16.58,0.32c1.47,0.779,3.107,1.19,4.77,1.2
	c6.72,0,12.32-6.78,13.48-15.71c-1.345-0.977-2.486-2.206-3.36-3.62c-3.94-6.35-10-10.42-16.9-10.42s-12.88,4-16.82,10.3
	c-2.396,3.857-6.63,6.184-11.17,6.14h-0.17C198.09,231.13,193.45,235.42,191.2,241.67z"/>
<path opacity="0.1" fill="#5263F3" enable-background="new    " d="M170.72,213.64l10.87,6.89l-6.6-12
	c1.866-1.495,4.179-2.322,6.57-2.35h0.23c0.754,0.019,1.508-0.038,2.25-0.17l3.68,2.34l-1.58-2.87
	c2.611-0.911,4.868-2.622,6.45-4.89l6.59,4.18l-4.17-7.57c3.86-4.62,9.05-7.46,14.77-7.46c6.85,0,12.95,4.07,16.9,10.42
	c2.378,3.858,6.64,6.147,11.17,6h0.36c7.57,0,13.7,8.58,13.7,19.16s-6.13,19.16-13.7,19.16c-1.664-0.006-3.301-0.418-4.77-1.2
	c-5.214-2.527-11.273-2.644-16.58-0.32c-2.228,0.996-4.64,1.514-7.08,1.52c-2.412-0.001-4.797-0.509-7-1.49
	c-5.268-2.28-11.265-2.163-16.44,0.32c-1.456,0.764-3.075,1.166-4.72,1.17c-7.56,0-13.7-8.58-13.7-19.16
	C167.863,221.254,168.826,217.238,170.72,213.64z"/>
<path fill="#192534" d="M254.3,402l219.43,106c5.71,2.72,13.36,4.15,20.88,4.15s15.17-1.43,20.88-4.15l219.43-106
	c11.55-5.58,11.55-14.66,0-20.23l-219.43-106c-5.71-2.72-13.36-4.15-20.88-4.15s-15.17,1.43-20.88,4.15l-219.43,106
	C242.79,387.34,242.79,396.42,254.3,402z"/>
<path fill="#192534" d="M734.92,510.55c0,0-40.07-19.32-45.39-21.92s-6.74-2.46-12.32,0.13s-161.85,78.12-161.85,78.12
	c-5.84,2.73-13.36,4.15-20.88,4.15s-15.17-1.42-20.88-4.15c0,0-152.13-73.4-159.26-76.9c-7.78-3.76-10-3.76-17-0.39l-43.31,20.88
	c-11.55,5.58-11.55,14.65,0,20.23l219.43,106c5.71,2.72,13.36,4.15,20.88,4.15s15.17-1.43,20.88-4.15l219.43-106
	c11.81-5.45,11.81-14.52,0.26-20.1L734.92,510.55z"/>
<path fill="#192534" d="M734.92,639.33c0,0-40.07-19.32-45.39-21.92s-6.74-2.46-12.32,0.13s-161.72,78.2-161.72,78.2
	c-5.84,2.73-13.36,4.16-20.88,4.16s-15.17-1.43-20.88-4.16c0,0-152.13-73.4-159.26-76.9c-7.78-3.76-10-3.76-17-0.39l-43.31,20.88
	c-11.55,5.58-11.55,14.66,0,20.23l219.43,106c5.71,2.85,13.36,4.15,20.88,4.15s15.17-1.43,20.88-4.15l219.44-106
	C746.47,653.99,746.47,644.91,734.92,639.33z"/>
<ellipse fill="#192534" cx="361.43" cy="211.8" rx="47.64" ry="66.17"/>
<rect x="356.14" y="320.32" fill="#5263F3" width="42.35" height="42.35"/>
<path fill="#FBBEBE" d="M323.79,524.37l13.91,19.56c-0.017-7.957,3.705-15.459,10.05-20.26c-6.008-5.92-12.606-11.211-19.69-15.79
	c-0.315-0.272-0.725-0.408-1.14-0.38c-0.345,0.111-0.643,0.332-0.85,0.63c-2.07,2.45-4.7,5.69-5.59,8.83
	C319.63,519.88,322.09,522.05,323.79,524.37z"/>
<path fill="#F2F2F2" d="M351.45,521.7c2.15,0,4.14,1,6,2.07c2.497,1.193,4.821,2.716,6.91,4.53c2.1,1.847,3.375,4.458,3.54,7.25
	c0,2.23-0.92,4.34-1.72,6.42c-3.683,9.693-4.577,20.225-2.58,30.4c0.65,3.32,1.61,6.8,0.58,10c-0.93,2.94-3.35,5.12-5.72,7.09
	c-3.78,3.13-7.94,6.19-12.81,6.85s-10.5-2-11.58-6.74c-0.64-2.82,0.37-5.71,1.07-8.51c1.67-6.69,1.63-13.67,1.58-20.57
	c0.058-2.096-0.116-4.192-0.52-6.25c-0.33-1.44-0.89-2.82-1.36-4.23c-1.26-3.79-1.81-8-0.37-11.75c0.84-1.917,1.933-3.713,3.25-5.34
	C341.12,528.37,344.79,521.67,351.45,521.7z"/>
<path fill="#FBBEBE" d="M343.9,228.59c0.12,2.48,0.21,5.1-0.94,7.3c-1,1.95-2.85,3.3-4.63,4.59l-5.93,4.29
	c-0.3,0.21-0.63,0.48-0.66,0.84c0.033,0.419,0.273,0.794,0.64,1c2.415,1.872,5.233,3.156,8.23,3.75
	c2.112,0.355,4.249,0.536,6.39,0.54c11.12,0.33,22.43,0.58,33.16-2.34c1.95-0.448,3.805-1.237,5.48-2.33
	c1.688-1.115,2.811-2.905,3.08-4.91c-2.74-0.15-5.16-1.76-7.42-3.31s-4.57-3.24-5.29-5.82c-0.45-1.61-0.19-3.35-0.56-5
	c-0.62-2.66-2.84-4.65-5.22-6c-6.14-3.48-13.39-3.69-20.08-5.51c-2.4-0.65-6.69-3.53-6.85,0.36
	C343.13,220.17,343.7,224.47,343.9,228.59z"/>
<path opacity="0.1" enable-background="new    " d="M343.9,228.59c0.12,2.48,0.21,5.1-0.94,7.3c-1,1.95-2.85,3.3-4.63,4.59
	l-5.93,4.29c-0.3,0.21-0.63,0.48-0.66,0.84c0.033,0.419,0.273,0.794,0.64,1c2.415,1.872,5.233,3.156,8.23,3.75
	c2.112,0.355,4.249,0.536,6.39,0.54c11.12,0.33,22.43,0.58,33.16-2.34c1.95-0.448,3.805-1.237,5.48-2.33
	c1.688-1.115,2.811-2.905,3.08-4.91c-2.74-0.15-5.16-1.76-7.42-3.31s-4.57-3.24-5.29-5.82c-0.45-1.61-0.19-3.35-0.56-5
	c-0.62-2.66-2.84-4.65-5.22-6c-6.14-3.48-13.39-3.69-20.08-5.51c-2.4-0.65-6.69-3.53-6.85,0.36
	C343.13,220.17,343.7,224.47,343.9,228.59z"/>
<path fill="#01E7C0" d="M333.08,367.59c-8.64-2.12-17.73,1-25.56,5.17s-15.07,9.63-23.39,12.78c-6.67,2.53-14.1,3.65-19.71,8.06
	c-5,4-7.89,10.07-9.75,16.2c-1.21,3.429-1.68,7.076-1.38,10.7c0.483,2.78,1.369,5.475,2.63,8c5.8,12.84,13.12,24.91,20.43,37
	c13.1,21.61,26.32,43.38,43.3,62.11c5.42-3.72,4.89-12.68,10.26-16.46c1.35-1,3-1.5,4.13-2.69c2.54-2.63,1.55-6.93,0.35-10.38
	c-7.425-21.448-16.247-42.386-26.41-62.68c14.61,0.1,26.86-11.32,41.25-13.88c3.992-0.587,8.025-0.854,12.06-0.8
	c14.229-0.259,28.435-1.26,42.56-3c5.12-0.64,10.55-1.51,14.4-4.95c4-3.58,5.42-9.16,6.63-14.39c2.54-10.89,8.91-20.45,12.83-30.92
	c1-2.7,2-5.41,3.23-8c1.08-2.22,2.36-4.34,3.5-6.53c3.6-7,5.64-14.67,7.39-22.34c2.1-9.2,4-18.6,5.94-27.84
	c1.3-6.36,3.83-13.26,0.81-19c-1.71-3.25-4.94-5.44-8.28-7c-3.57-1.63-7.55-2.69-11.43-2.08c-7.64,1.21-12.79,8.21-17.08,14.63
	l-6.7,10.09c-1.615,2.32-3.091,4.734-4.42,7.23c-2.52,4.94-3.89,10.36-5.82,15.55c-5.21,13.94-15,26.53-28.3,33.17
	c-3.54,1.77-7.28,3.1-10.84,4.81c-2.79,1.34-5.47,2.91-8.29,4.19C349.79,367.88,341.29,369.6,333.08,367.59z"/>
<circle fill="#FBBEBE" cx="366.73" cy="203.86" r="26.47"/>
<path fill="#5263F3" d="M378.27,233.95c-1.12,3-2.3,6.11-4.41,8.55c-3.78,4.36-9.89,5.91-15.66,6.14
	c-6.42,0.253-12.823-0.833-18.8-3.19c-2.56-1-5.17-2.28-7.9-2c-3.95,0.35-6.88,3.67-10.36,5.58c-1.74,1-3.65,1.57-5.48,2.36
	c-9.126,4.057-15.683,12.329-17.55,22.14c-2,11.28,7.08,22,12.58,32.06c2.41,4.42,5.22,8.7,6.56,13.54
	c2.25,8.14,0.08,16.81-2.77,24.76s-6.41,15.81-7,24.23c-0.18,2.47,0.68,5.8,3.16,5.77c0.914-0.114,1.785-0.458,2.53-1
	c4.428-2.527,9.583-3.476,14.62-2.69c3.51,0.57,6.85,2,10.36,2.49c6.9,1,13.78-1.42,20.31-3.82c6.23-2.29,12.71-4.75,17.15-9.69
	c3.33-3.7,5.24-8.53,8.66-12.15c4.5-4.75,11.29-7.08,15.05-12.43c2.21-3.15,3.11-7,4.39-10.62s3.2-7.32,6.58-9.15
	c-1.81-3.16-3.83-6.55-3.61-10.19c0.19-3.17,1.95-6,3.25-8.9c0.85-1.91,1.52-3.9,2.19-5.88l2.16-6.43c0.58-1.75,1.17-3.49,1.61-5.28
	c0.75-3,1.06-6.2,1.94-9.21c2.24-7.77,7.94-14,13.21-20.1c-4.608-1.778-9.363-3.15-14.21-4.1c-1.629-0.229-3.226-0.645-4.76-1.24
	c-1.75-0.77-3.23-2-4.92-2.92c-2.64-1.37-5.67-1.74-8.61-2.19C391.67,237.488,384.888,236.003,378.27,233.95z"/>
<path fill="#FBBEBE" d="M288.95,351.73c-0.242,2.333-0.164,4.688,0.23,7c0.645,2.386,1.611,4.673,2.87,6.8
	c5.5,10.51,10,21.51,14.53,32.49c1.278,2.815,2.253,5.759,2.91,8.78c0.42,2.28,0.47,4.62,0.77,6.92
	c0.253,2.266,0.857,4.479,1.79,6.56c1.06,2.26,6.8,14.33,9,15.51c4.73,2.57,11.08,0.2,14.09-4.27s-1-20.36-2.38-25.55
	s-4.24-9.87-6.88-14.56c-4.619-8.2-8.801-16.639-12.53-25.28c-3.18-7.38-6.08-15.36-4.74-23.29c0.75-4.46,2.81-8.59,4.36-12.84
	s2.6-8.95,1.28-13.29c-0.198-0.76-0.538-1.475-1-2.11c-0.766-0.829-1.729-1.451-2.8-1.81c-4.68-1.89-14.25-3.46-16.27,2.83
	c-0.83,2.61-1,5.46-1.7,8.13c-1.069,4.246-1.85,8.559-2.34,12.91C289.53,341.65,289.24,346.69,288.95,351.73z"/>
<path fill="#FBBEBE" d="M385.95,370.53c-5.9,6.96-11.64,14.057-17.22,21.29l14.44,10.67c0.521-1.897,1.224-3.739,2.1-5.5
	c0.984-1.723,2.133-3.348,3.43-4.85l14.63-18.13c-3.431-2.149-7.319-3.464-11.35-3.84C390.05,370.45,387.88,370.25,385.95,370.53z"
	/>
<path fill="#FBBEBE" d="M449.34,255.8c3.82,0.87,7.64,1.74,11.41,2.8c7.83,2.21,15.75,5.42,21.17,11.49
	c1.2,1.34,2.29,3.38,1.23,4.84c-0.372,0.424-0.795,0.801-1.26,1.12c-1.47,1.22-2.29,3-3.2,4.71c-1.77,3.274-4.026,6.261-6.69,8.86
	c-2.131-2.331-4.627-4.3-7.39-5.83l-6-3.75c-2.65-1.67-5.4-3.37-8.5-3.85c-3.56-0.55-7.15,0.57-10.75,0.84
	c-4.572,0.342-9.141-0.703-13.11-3c-0.501-0.241-0.929-0.61-1.24-1.07c-0.185-0.361-0.297-0.755-0.33-1.16
	c-0.37-4.151,0.921-8.28,3.59-11.48c1.85-2.35,6-6.75,9.19-7.16c1.57-0.2,3.8,0.83,5.35,1.18L449.34,255.8z"/>
<path fill="#01E7C0" d="M444.69,280.51c-1.078,0.415-2.128,0.903-3.14,1.46c-7.84,4.09-15.93,8.39-21.32,15.4
	c-2.555,3.594-4.714,7.453-6.44,11.51l-13.06,27.78l-2.74,5.83l-4.2,8.82l-10.68,22.72c3.81-0.66,7.89-0.62,11.36,1.08
	s6.17,5.35,5.88,9.21c3.1-0.27,4.75-3.64,6.93-5.86c1.78-1.82,4.12-3,6.18-4.47c2.685-2.107,5.142-4.49,7.33-7.11
	c6.87-7.641,14.279-14.779,22.17-21.36c1.543-1.225,3.012-2.541,4.4-3.94c2.899-3.319,5.169-7.138,6.7-11.27
	c3.244-7.848,5.456-16.083,6.58-24.5c0.68-5.12,0.92-10.52-1.17-15.24c-3.342-7.075-11.082-10.955-18.75-9.4"/>
<path opacity="0.1" enable-background="new    " d="M443.69,281.51c-1.078,0.415-2.128,0.903-3.14,1.46
	c-7.84,4.09-15.93,8.39-21.32,15.4c-2.555,3.594-4.714,7.453-6.44,11.51l-13.06,27.78l-2.74,5.83l-4.2,8.82l-10.68,22.72
	c3.81-0.66,7.89-0.62,11.36,1.08s6.17,5.35,5.88,9.21c3.1-0.27,4.75-3.64,6.93-5.86c1.78-1.82,4.12-3,6.18-4.47
	c2.685-2.107,5.142-4.49,7.33-7.11c6.87-7.641,14.279-14.779,22.17-21.36c1.543-1.225,3.012-2.541,4.4-3.94
	c2.899-3.319,5.169-7.138,6.7-11.27c3.244-7.848,5.456-16.083,6.58-24.5c0.68-5.12,0.92-10.52-1.17-15.24
	c-3.342-7.075-11.082-10.955-18.75-9.4"/>
<path fill="#F2F2F2" d="M374.84,388.22l-10.94-1.2c-0.301-0.057-0.612-0.033-0.9,0.07c-0.286,0.183-0.507,0.453-0.63,0.77
	c-3.52,6.627-6.807,13.373-9.86,20.24c-1.7,3.81-3.29,8.38-1.14,12c0.64,1.06,1.57,1.94,2.17,3c1.36,2.49,0.74,5.59-0.24,8.26
	c-0.373,0.752-0.518,1.596-0.42,2.43c0.27,1.12,1.4,1.79,2.44,2.3c8.591,4.226,17.828,6.984,27.33,8.16
	c0.723,0.181,1.489,0.07,2.13-0.31c0.415-0.397,0.7-0.909,0.82-1.47c0.367-1.066,0.664-2.155,0.89-3.26c0.72-3.94-0.39-8-1.23-11.88
	c-1.36-6.36-2-13.06-0.16-19.29c0.774-2.609,1.955-5.079,3.5-7.32c1.74-2.54-4.21-4.93-5.79-6.71
	C380.13,390.96,379.31,388.71,374.84,388.22z"/>
<path fill="#5263F3" d="M294.22,300.13l-3.32,20.32c2.79-2.64,6.94-3.12,10.78-3.2s8.31,0.29,11,3.17c1.09,1.18,1.78,2.67,2.84,3.88
	s2.71,2.12,4.22,1.6c1.077-0.452,1.873-1.393,2.14-2.53c0.246-1.126,0.313-2.283,0.2-3.43l-1.09-22.42
	c-0.27-5.41-0.55-10.94-2.54-16c-1.094-2.775-2.675-5.332-4.67-7.55c-0.568-0.681-1.244-1.266-2-1.73
	c-0.833-0.408-1.729-0.675-2.65-0.79c-2.6-0.41-6.83-1.09-9.25,0.32c-2,1.19-2.19,4-2.42,6.08
	C296.62,285.33,295.44,292.74,294.22,300.13z"/>
<ellipse fill="#192534" cx="366.73" cy="187.98" rx="37.06" ry="15.88"/>
<circle fill="#192534" cx="319.08" cy="166.8" r="21.17"/>
<circle fill="#192534" cx="393.2" cy="161.51" r="21.17"/>
<path opacity="0.1" enable-background="new    " d="M403.24,149.45c8.292,6.716,10.293,18.551,4.67,27.62
	c0.638-0.614,1.239-1.265,1.8-1.95c7.22-9.203,5.613-22.517-3.59-29.737c-9.005-7.065-21.993-5.698-29.33,3.087
	c-0.552,0.693-1.063,1.417-1.53,2.17C382.954,143.25,394.946,142.74,403.24,149.45z"/>
<path opacity="0.1" enable-background="new    " d="M313.54,152.04c9.805-4.197,21.201-0.448,26.6,8.75
	c-0.243-0.85-0.536-1.685-0.88-2.5c-4.826-10.656-17.376-15.382-28.031-10.556c-10.357,4.69-15.163,16.721-10.889,27.256
	c0.346,0.813,0.747,1.602,1.2,2.36C298.589,167.095,303.733,156.246,313.54,152.04z"/>
<path opacity="0.1" enable-background="new    " d="M366.73,198.56c-18.36,0-33.59-5.72-36.54-13.23
	c-0.336,0.844-0.512,1.742-0.52,2.65c0,8.77,16.59,15.88,37.06,15.88s37.06-7.11,37.06-15.88c-0.003-0.908-0.18-1.808-0.52-2.65
	C400.32,192.88,385.09,198.56,366.73,198.56z"/>
<polygon fill="#464A5F" points="424.31,393.58 426.96,398.37 513.19,380.09 509.78,374.67 "/>
<path fill="#464A5F" d="M413.98,398.24l-13.06-77.46c-0.223-1.351,0.691-2.628,2.042-2.851c0.046-0.008,0.092-0.014,0.138-0.019
	l99-10.56c1.328-0.142,2.528,0.797,2.71,2.12l9.26,67.85L413.98,398.24z"/>
<path opacity="0.1" enable-background="new    " d="M413.98,398.24l-13.06-77.46c-0.223-1.351,0.691-2.628,2.042-2.851
	c0.046-0.008,0.092-0.014,0.138-0.019l99-10.56c1.328-0.142,2.528,0.797,2.71,2.12l9.26,67.85L413.98,398.24z"/>
<path fill="#464A5F" d="M415.49,398.24l-13.05-77.46c-0.229-1.345,0.676-2.62,2.021-2.849c0.05-0.008,0.099-0.015,0.149-0.021
	l99-10.56c1.328-0.142,2.528,0.797,2.71,2.12l9.25,67.85L415.49,398.24z"/>
<polygon fill="#5263F3" points="409.31,324.24 420.03,390.05 509.53,371.64 501.21,313.15 "/>
<path fill="#9C9CA1" d="M426.46,396.88l-0.63-1.27l-11.85,2.65l30.18,46.12c0.94,1.439,2.711,2.092,4.36,1.61l106-30.81
	c2.07-0.596,3.264-2.758,2.668-4.827c-0.234-0.811-0.724-1.524-1.398-2.033l-41.08-31.11l-8.57,2l0.38,0.88L426.46,396.88z"/>
<path opacity="0.1" enable-background="new    " d="M426.46,396.88l-0.63-1.27l-11.85,2.65l30.18,46.12
	c0.94,1.439,2.711,2.092,4.36,1.61l106-30.81c2.07-0.596,3.264-2.758,2.668-4.827c-0.234-0.811-0.724-1.524-1.398-2.033
	l-41.08-31.11l-8.57,2l0.38,0.88L426.46,396.88z"/>
<path fill="#9C9CA1" d="M427.97,396.88l-0.63-1.27l-11.85,2.65l30.18,46.12c0.94,1.439,2.711,2.092,4.36,1.61l106-30.81
	c2.069-0.6,3.259-2.764,2.658-4.833c-0.235-0.809-0.725-1.52-1.398-2.027l-41.08-31.11l-8.57,2l0.38,0.88L427.97,396.88z"/>
<path opacity="0.1" enable-background="new    " d="M475.25,415.75l34.06-8.87c0.216-0.054,0.444,0.002,0.61,0.15l15.13,13.73
	c0.269,0.246,0.287,0.664,0.041,0.932c-0.081,0.089-0.185,0.154-0.301,0.188l-36,10.64c-0.248,0.071-0.515-0.011-0.68-0.21
	l-13.17-15.51c-0.23-0.29-0.18-0.712,0.11-0.941C475.11,415.811,475.178,415.775,475.25,415.75z"/>
<path fill="#939498" d="M476.01,415l34.06-8.85c0.216-0.056,0.445,0,0.61,0.15l15.11,13.72c0.269,0.246,0.287,0.664,0.041,0.932
	c-0.081,0.089-0.185,0.154-0.301,0.188l-36,10.64c-0.251,0.07-0.521-0.012-0.69-0.21l-13.16-15.51
	c-0.237-0.269-0.211-0.68,0.058-0.917C475.816,415.074,475.909,415.025,476.01,415z"/>
<g opacity="0.1">
	<path d="M428.03,403.29l1.53,2.46c0.064,0.106,0.188,0.162,0.31,0.14l5.17-1.15c0.16-0.043,0.255-0.207,0.213-0.367
		c-0.009-0.033-0.023-0.065-0.043-0.093l-1.71-2.4c-0.066-0.097-0.185-0.145-0.3-0.12l-5,1.07c-0.157,0.033-0.257,0.187-0.223,0.344
		C427.986,403.216,428.004,403.256,428.03,403.29z"/>
	<path d="M434.79,401.88l1.52,2.47c0.07,0.104,0.197,0.156,0.32,0.13l5.16-1.15c0.157-0.033,0.257-0.187,0.223-0.344
		c-0.009-0.042-0.027-0.082-0.053-0.116l-1.7-2.38c-0.068-0.095-0.185-0.142-0.3-0.12l-5,1.07c-0.155,0.04-0.248,0.198-0.208,0.353
		C434.76,401.824,434.773,401.853,434.79,401.88z"/>
	<path d="M441.33,400.46l1.53,2.46c0.067,0.103,0.19,0.154,0.31,0.13l5.17-1.15c0.16-0.043,0.255-0.207,0.213-0.367
		c-0.009-0.033-0.023-0.065-0.043-0.093l-1.72-2.38c-0.07-0.093-0.185-0.139-0.3-0.12l-5,1.07c-0.158,0.05-0.245,0.219-0.195,0.377
		C441.303,400.413,441.315,400.437,441.33,400.46z"/>
	<path d="M447.79,399.06l1.51,2.43c0.073,0.114,0.208,0.17,0.34,0.14l5.12-1.14c0.171-0.046,0.271-0.222,0.225-0.393
		c-0.009-0.035-0.025-0.068-0.045-0.097l-1.68-2.35c-0.073-0.1-0.199-0.148-0.32-0.12l-5,1.06c-0.164,0.066-0.244,0.252-0.178,0.416
		C447.77,399.025,447.779,399.043,447.79,399.06z"/>
	<path d="M447.26,402.82l1.53,2.46c0.063,0.107,0.189,0.16,0.31,0.13l5.16-1.15c0.152-0.027,0.254-0.173,0.227-0.325
		c-0.008-0.046-0.028-0.089-0.057-0.125l-1.7-2.39c-0.069-0.093-0.187-0.137-0.3-0.11l-5,1.07c-0.155,0.04-0.248,0.198-0.208,0.353
		C447.23,402.764,447.243,402.793,447.26,402.82z"/>
	<path d="M440.57,404.24l1.53,2.46c0.069,0.107,0.197,0.159,0.32,0.13l5.16-1.15c0.157-0.033,0.257-0.187,0.223-0.344
		c-0.009-0.042-0.027-0.082-0.053-0.116l-1.71-2.34c-0.067-0.096-0.187-0.14-0.3-0.11l-5,1.07c-0.155,0.058-0.234,0.231-0.176,0.386
		C440.566,404.231,440.568,404.235,440.57,404.24z"/>
	<path d="M444.92,407.26l1.53,2.47c0.072,0.102,0.197,0.153,0.32,0.13l5.16-1.15c0.157-0.033,0.257-0.187,0.223-0.344
		c-0.009-0.042-0.027-0.082-0.053-0.116l-1.71-2.37c-0.066-0.097-0.185-0.145-0.3-0.12l-5,1.07
		c-0.158,0.051-0.244,0.221-0.193,0.378C444.903,407.226,444.911,407.243,444.92,407.26z"/>
	<path d="M451.07,409.88l1.53,2.46c0.063,0.107,0.189,0.16,0.31,0.13l5.16-1.15c0.157-0.032,0.258-0.185,0.226-0.342
		c-0.008-0.039-0.024-0.076-0.046-0.108l-1.71-2.39c-0.069-0.093-0.187-0.137-0.3-0.11l-5,1.07c-0.155,0.04-0.248,0.198-0.208,0.353
		C451.04,409.824,451.053,409.853,451.07,409.88z"/>
	<path d="M452.14,414.19l2.47,3.1c0.071,0.09,0.189,0.129,0.3,0.1l5.2-1.35c0.16-0.044,0.254-0.209,0.21-0.369
		c-0.01-0.037-0.027-0.071-0.05-0.101l-2.56-3.12c-0.071-0.09-0.189-0.129-0.3-0.1l-5.12,1.38c-0.154,0.043-0.245,0.202-0.203,0.357
		C452.098,414.124,452.116,414.159,452.14,414.19z"/>
	<path d="M458.94,412.49l2.54,3.19c0.071,0.09,0.189,0.129,0.3,0.1l6.79-1.88c0.158-0.048,0.248-0.216,0.199-0.375
		c-0.011-0.035-0.027-0.067-0.049-0.095l-2.56-3.13c-0.071-0.09-0.189-0.129-0.3-0.1l-6.76,1.82c-0.16,0.044-0.254,0.209-0.21,0.369
		C458.9,412.425,458.917,412.46,458.94,412.49z"/>
	<path d="M445.49,415.88l2.47,3.1c0.071,0.09,0.189,0.129,0.3,0.1l5.2-1.35c0.16-0.044,0.254-0.209,0.21-0.369
		c-0.01-0.037-0.027-0.071-0.05-0.101l-2.56-3.13c-0.072-0.088-0.191-0.124-0.3-0.09l-5.12,1.37
		c-0.158,0.048-0.248,0.216-0.199,0.375C445.451,415.819,445.468,415.851,445.49,415.88z"/>
	<path d="M438.46,417.66l2.47,3.09c0.071,0.09,0.189,0.129,0.3,0.1l5.2-1.35c0.16-0.044,0.254-0.209,0.21-0.369
		c-0.01-0.037-0.027-0.071-0.05-0.101l-2.55-3.15c-0.076-0.089-0.196-0.128-0.31-0.1l-5.12,1.38
		c-0.162,0.037-0.263,0.198-0.226,0.359C438.396,417.572,438.422,417.621,438.46,417.66z"/>
	<path d="M454.24,397.55l1.5,2.43c0.073,0.114,0.208,0.17,0.34,0.14l5.12-1.14c0.167-0.037,0.273-0.203,0.236-0.37
		c-0.01-0.044-0.029-0.085-0.056-0.12l-1.68-2.35c-0.073-0.1-0.199-0.148-0.32-0.12l-4.94,1.06
		c-0.164,0.025-0.277,0.178-0.252,0.341C454.195,397.468,454.213,397.512,454.24,397.55z"/>
	<path d="M453.79,401.33l1.5,2.43c0.073,0.114,0.208,0.17,0.34,0.14l5.12-1.14c0.167-0.037,0.273-0.203,0.236-0.37
		c-0.01-0.044-0.029-0.085-0.056-0.12l-1.64-2.39c-0.073-0.1-0.199-0.148-0.32-0.12l-4.94,1.12c-0.17,0.02-0.292,0.173-0.272,0.344
		C453.762,401.261,453.773,401.297,453.79,401.33z"/>
	<path d="M460.51,396.13l1.5,2.43c0.073,0.114,0.208,0.17,0.34,0.14l5.12-1.14c0.167-0.037,0.273-0.203,0.236-0.37
		c-0.01-0.044-0.029-0.085-0.056-0.12l-1.68-2.35c-0.073-0.1-0.199-0.148-0.32-0.12l-4.94,1.06
		c-0.168,0.034-0.276,0.198-0.242,0.365C460.475,396.063,460.49,396.098,460.51,396.13z"/>
	<path d="M478.85,392.13l2.12,2.26c0.065,0.06,0.153,0.086,0.24,0.07l4.57-1.06c0.135-0.027,0.224-0.158,0.197-0.294
		c-0.01-0.052-0.037-0.1-0.077-0.136l-2.39-2.26c-0.066-0.058-0.155-0.08-0.24-0.06l-4.3,1.06c-0.134,0.031-0.218,0.166-0.186,0.3
		C478.794,392.056,478.817,392.097,478.85,392.13z"/>
	<path d="M484.71,390.77l2.13,2.26c0.061,0.066,0.153,0.093,0.24,0.07l4.57-1.06c0.13-0.024,0.216-0.15,0.192-0.28
		c-0.01-0.055-0.039-0.104-0.082-0.14l-2.39-2.27c-0.067-0.055-0.155-0.077-0.24-0.06l-4.3,1.06
		c-0.137,0.042-0.215,0.187-0.173,0.324C484.668,390.71,484.686,390.742,484.71,390.77z"/>
	<path d="M478.97,395.78l2.13,2.26c0.061,0.066,0.153,0.093,0.24,0.07l4.57-1.05c0.135-0.027,0.224-0.158,0.197-0.294
		c-0.01-0.052-0.037-0.1-0.077-0.136l-2.4-2.26c-0.06-0.061-0.146-0.087-0.23-0.07l-4.3,1.07c-0.135,0.031-0.218,0.166-0.187,0.3
		C478.923,395.711,478.942,395.749,478.97,395.78z"/>
	<path d="M472.96,397.18l2,2.16c0.076,0.082,0.191,0.116,0.3,0.09l4.43-1c0.171-0.045,0.273-0.22,0.228-0.391
		c-0.015-0.057-0.045-0.108-0.088-0.149l-2.29-2.16c-0.077-0.073-0.188-0.1-0.29-0.07l-4.16,1c-0.167,0.058-0.256,0.24-0.198,0.407
		C472.907,397.109,472.93,397.147,472.96,397.18z"/>
	<path d="M477.53,403.99l2,2.16c0.078,0.079,0.191,0.112,0.3,0.09l4.43-1c0.167-0.039,0.271-0.205,0.232-0.372
		c-0.014-0.061-0.046-0.116-0.092-0.158l-2.29-2.16c-0.078-0.072-0.186-0.102-0.29-0.08l-4.16,1
		c-0.167,0.058-0.256,0.24-0.198,0.407C477.477,403.919,477.5,403.957,477.53,403.99z"/>
	<path d="M471.26,405.41l2,2.16c0.078,0.079,0.191,0.112,0.3,0.09l4.42-1c0.168-0.034,0.276-0.198,0.242-0.366
		c-0.013-0.063-0.045-0.12-0.092-0.164l-2.29-2.16c-0.077-0.073-0.186-0.103-0.29-0.08l-4.17,1c-0.166,0.062-0.25,0.246-0.188,0.412
		C471.207,405.342,471.23,405.379,471.26,405.41z"/>
	<path d="M464.89,406.98l2,2.16c0.076,0.082,0.191,0.116,0.3,0.09l4.43-1c0.171-0.045,0.273-0.22,0.228-0.391
		c-0.015-0.057-0.045-0.108-0.088-0.149l-2.29-2.16c-0.077-0.073-0.188-0.1-0.29-0.07l-4.16,1c-0.164,0.048-0.259,0.219-0.212,0.384
		C464.823,406.896,464.851,406.943,464.89,406.98z"/>
	<path d="M458.16,408.31l2.06,2.19c0.071,0.077,0.177,0.111,0.28,0.09l4.47-1c0.157-0.03,0.26-0.182,0.23-0.339
		c-0.012-0.062-0.044-0.118-0.09-0.161l-2.32-2.21c-0.072-0.068-0.174-0.094-0.27-0.07l-4.21,1
		c-0.154,0.012-0.269,0.147-0.257,0.301C458.059,408.19,458.098,408.262,458.16,408.31z"/>
	<path d="M471.2,401.47l2,2.16c0.077,0.08,0.191,0.114,0.3,0.09l4.42-1c0.168-0.034,0.276-0.198,0.242-0.366
		c-0.013-0.063-0.045-0.12-0.092-0.164l-2.28-2.19c-0.077-0.073-0.186-0.103-0.29-0.08l-4.17,1
		c-0.168,0.033-0.278,0.195-0.245,0.363C471.099,401.358,471.14,401.424,471.2,401.47z"/>
	<path d="M465.08,402.88l2,2.15c0.074,0.086,0.191,0.121,0.3,0.09l4.43-1c0.167-0.039,0.271-0.205,0.232-0.372
		c-0.014-0.061-0.046-0.116-0.092-0.158l-2.29-2.16c-0.073-0.081-0.186-0.112-0.29-0.08l-4.16,1
		c-0.166,0.043-0.265,0.212-0.222,0.378C465.003,402.787,465.035,402.839,465.08,402.88z"/>
	<path d="M458.53,404.27l2,2.16c0.076,0.082,0.191,0.116,0.3,0.09l4.42-1c0.172-0.041,0.278-0.213,0.237-0.385
		c-0.014-0.059-0.044-0.112-0.087-0.155l-2.29-2.16c-0.078-0.071-0.188-0.098-0.29-0.07l-4.17,1
		c-0.163,0.052-0.254,0.226-0.202,0.389C458.464,404.189,458.492,404.234,458.53,404.27z"/>
	<path d="M451.79,405.88l2.06,2.19c0.079,0.07,0.186,0.1,0.29,0.08l4.47-1c0.156-0.035,0.255-0.189,0.221-0.346
		c-0.013-0.06-0.045-0.114-0.091-0.154l-2.32-2.19c-0.073-0.066-0.174-0.092-0.27-0.07l-4.21,1
		c-0.161,0.041-0.257,0.204-0.216,0.365C451.735,405.801,451.758,405.844,451.79,405.88z"/>
	<path d="M477.5,399.99l2,2.15c0.074,0.086,0.189,0.124,0.3,0.1l4.42-1c0.168-0.034,0.276-0.198,0.242-0.366
		c-0.013-0.063-0.045-0.12-0.092-0.164l-2.29-2.16c-0.074-0.079-0.186-0.109-0.29-0.08l-4.17,1c-0.166,0.062-0.25,0.246-0.188,0.412
		C477.447,399.922,477.47,399.959,477.5,399.99z"/>
	<path d="M466.79,398.76l2,2.16c0.077,0.08,0.191,0.114,0.3,0.09l4.42-1c0.167-0.039,0.271-0.205,0.232-0.372
		c-0.014-0.061-0.046-0.116-0.092-0.158l-2.28-2.16c-0.077-0.073-0.186-0.103-0.29-0.08l-4.17,1
		c-0.163,0.052-0.253,0.226-0.202,0.389C466.724,398.679,466.752,398.724,466.79,398.76z"/>
	<path d="M490.37,389.34l2.23,2.36c0.045,0.051,0.114,0.074,0.18,0.06l4.72-1.1c0.102-0.024,0.165-0.126,0.141-0.229
		c-0.008-0.035-0.026-0.066-0.051-0.091l-2.51-2.37c-0.056-0.03-0.124-0.03-0.18,0l-4.44,1.1c-0.094,0.033-0.143,0.136-0.11,0.229
		C490.355,389.314,490.362,389.327,490.37,389.34z"/>
	<path d="M496.07,388.07l2.23,2.37c0.047,0.048,0.114,0.07,0.18,0.06l4.72-1.1c0.102-0.024,0.165-0.126,0.141-0.229
		c-0.008-0.035-0.026-0.066-0.051-0.091l-2.5-2.37c-0.053-0.03-0.117-0.03-0.17,0l-4.45,1.1c-0.094,0.031-0.146,0.133-0.115,0.227
		C496.059,388.049,496.064,388.06,496.07,388.07z"/>
	<path d="M501.94,386.73l2,2.19c0.045,0.056,0.12,0.08,0.19,0.06l4.4-1.2c0.103-0.039,0.156-0.154,0.117-0.257
		c-0.01-0.027-0.026-0.052-0.047-0.073l-2.27-1.91c-0.051-0.022-0.109-0.022-0.16,0l-4.17,0.92
		c-0.088,0.046-0.123,0.154-0.078,0.242C501.928,386.712,501.933,386.721,501.94,386.73z"/>
	<path d="M508.08,388.77l2,2.2c0.046,0.049,0.114,0.072,0.18,0.06l4.4-1.2c0.101-0.028,0.161-0.133,0.133-0.234
		c-0.01-0.038-0.032-0.071-0.063-0.096l-2.27-1.91c-0.049-0.029-0.11-0.029-0.16,0l-4.16,0.91c-0.09,0.054-0.12,0.17-0.066,0.26
		C508.076,388.764,508.078,388.767,508.08,388.77z"/>
	<path d="M507.34,392.77l1.93,2.08c0.061,0.073,0.16,0.1,0.25,0.07l4.24-1.15c0.135-0.03,0.219-0.164,0.189-0.299
		c-0.013-0.056-0.044-0.106-0.089-0.141l-2.15-1.82c-0.061-0.051-0.143-0.069-0.22-0.05l-4,0.89
		c-0.137,0.017-0.234,0.143-0.216,0.28C507.28,392.682,507.303,392.731,507.34,392.77z"/>
	<path d="M502.33,397.88l1.93,2.09c0.064,0.068,0.16,0.095,0.25,0.07l4.28-1.16c0.133-0.036,0.213-0.172,0.177-0.306
		c-0.013-0.048-0.04-0.091-0.077-0.124l-2.15-1.82c-0.069-0.034-0.151-0.034-0.22,0l-4,0.88c-0.142,0.024-0.237,0.159-0.212,0.3
		C502.312,397.834,502.319,397.858,502.33,397.88z"/>
	<path d="M496.31,399.42l1.93,2.08c0.061,0.073,0.16,0.1,0.25,0.07l4.24-1.15c0.135-0.03,0.219-0.164,0.189-0.299
		c-0.013-0.056-0.044-0.106-0.089-0.141l-2.15-1.82c-0.069-0.034-0.151-0.034-0.22,0l-4,0.89c-0.133,0.036-0.213,0.173-0.177,0.306
		C496.289,399.379,496.298,399.4,496.31,399.42z"/>
	<path d="M508,396.36l1.93,2.08c0.064,0.068,0.158,0.098,0.25,0.08l4.25-1.16c0.134-0.035,0.214-0.171,0.179-0.305
		c-0.014-0.054-0.045-0.101-0.089-0.135l-2.15-1.81c-0.062-0.049-0.142-0.071-0.22-0.06l-4,0.89
		c-0.141,0.028-0.232,0.165-0.204,0.306C507.954,396.288,507.973,396.327,508,396.36z"/>
	<path d="M507.02,400.88l2.91,2.62c0.077,0.033,0.163,0.033,0.24,0l4.21-1.19c0.133-0.036,0.213-0.172,0.177-0.306
		c-0.013-0.048-0.04-0.091-0.077-0.124l-3.14-2.75c-0.074-0.045-0.166-0.045-0.24,0l-4,1.33c-0.127,0.037-0.2,0.17-0.163,0.298
		C506.951,400.806,506.98,400.849,507.02,400.88z"/>
	<path d="M496.79,391.61l2,2.2c0.045,0.051,0.115,0.071,0.18,0.05l4.4-1.2c0.097-0.021,0.159-0.117,0.138-0.214
		c-0.009-0.042-0.033-0.08-0.068-0.106l-2.27-1.92c-0.05-0.025-0.11-0.025-0.16,0l-4.16,0.92c-0.09,0.054-0.12,0.17-0.066,0.26
		C496.786,391.604,496.788,391.607,496.79,391.61z"/>
	<path d="M491.14,393.02l1.93,2.08c0.064,0.068,0.158,0.098,0.25,0.08l4.25-1.16c0.134-0.035,0.214-0.171,0.179-0.305
		c-0.014-0.054-0.045-0.101-0.089-0.135l-2.15-1.81c-0.062-0.049-0.142-0.071-0.22-0.06l-4,0.89
		c-0.137,0.017-0.234,0.142-0.217,0.279C491.08,392.932,491.103,392.981,491.14,393.02z"/>
	<path d="M489.98,397.05l1.93,2.09c0.064,0.068,0.16,0.095,0.25,0.07l4.24-1.16c0.133-0.036,0.213-0.172,0.177-0.306
		c-0.013-0.048-0.04-0.091-0.077-0.124l-2.16-1.82c-0.061-0.051-0.143-0.069-0.22-0.05l-4,0.88
		c-0.136,0.022-0.229,0.151-0.207,0.287C489.922,396.967,489.945,397.013,489.98,397.05z"/>
	<path d="M483.99,398.5l1.93,2.09c0.064,0.068,0.16,0.095,0.25,0.07l4.24-1.16c0.133-0.036,0.213-0.172,0.177-0.306
		c-0.013-0.048-0.04-0.091-0.077-0.124l-2.16-1.82c-0.057-0.051-0.136-0.069-0.21-0.05l-4,0.88c-0.137,0.017-0.234,0.143-0.216,0.28
		C483.93,398.412,483.953,398.461,483.99,398.5z"/>
	<path d="M485.06,394.37l1.93,2.09c0.061,0.073,0.16,0.1,0.25,0.07l4.24-1.16c0.133-0.036,0.213-0.172,0.177-0.306
		c-0.013-0.048-0.04-0.091-0.077-0.124l-2.15-1.82c-0.061-0.051-0.143-0.069-0.22-0.05l-4,0.89c-0.136,0.022-0.229,0.15-0.207,0.286
		C485.01,394.292,485.03,394.335,485.06,394.37z"/>
	<path d="M490.07,400.77l1.93,2.09c0.064,0.068,0.16,0.095,0.25,0.07l4.24-1.16c0.133-0.036,0.213-0.172,0.177-0.306
		c-0.013-0.048-0.04-0.091-0.077-0.124l-2.15-1.82c-0.061-0.051-0.143-0.069-0.22-0.05l-4,0.88
		c-0.141,0.028-0.232,0.165-0.204,0.306C490.024,400.698,490.043,400.737,490.07,400.77z"/>
	<path d="M484.19,402.36l1.83,2c0.077,0.088,0.198,0.123,0.31,0.09l4.09-1.11c0.17-0.049,0.268-0.226,0.219-0.396
		c-0.017-0.06-0.052-0.113-0.099-0.154l-2-1.72c-0.074-0.064-0.176-0.087-0.27-0.06l-3.88,0.85c-0.17,0.024-0.288,0.18-0.264,0.35
		C484.133,402.265,484.155,402.317,484.19,402.36z"/>
	<path d="M502.63,390.16l2,2.2c0.059,0.034,0.131,0.034,0.19,0l4.4-1.2c0.097-0.021,0.159-0.117,0.138-0.214
		c-0.009-0.042-0.033-0.08-0.068-0.106l-2.27-1.92c-0.051-0.02-0.109-0.02-0.16,0l-4.16,0.92c-0.1,0.033-0.154,0.14-0.122,0.24
		C502.589,390.11,502.606,390.138,502.63,390.16z"/>
	<path d="M501.79,394.12l1.93,2.09c0.064,0.068,0.16,0.095,0.25,0.07l4.24-1.16c0.133-0.036,0.213-0.172,0.177-0.306
		c-0.013-0.048-0.04-0.091-0.077-0.124l-2.12-1.81c-0.061-0.051-0.143-0.069-0.22-0.05l-4,0.88
		c-0.138,0.007-0.244,0.124-0.238,0.262C501.735,394.026,501.755,394.078,501.79,394.12z"/>
	<path d="M496.06,395.7l1.93,2.08c0.063,0.07,0.158,0.1,0.25,0.08l4.24-1.16c0.137-0.042,0.215-0.187,0.173-0.325
		c-0.014-0.044-0.039-0.084-0.073-0.115l-2.16-1.81c-0.058-0.049-0.135-0.07-0.21-0.06l-4,0.89
		c-0.137,0.017-0.234,0.143-0.217,0.279C496,395.612,496.023,395.661,496.06,395.7z"/>
	<path d="M472.86,393.42l2.13,2.26c0.063,0.063,0.153,0.089,0.24,0.07l4.57-1.06c0.135-0.031,0.218-0.166,0.187-0.3
		c-0.012-0.05-0.039-0.096-0.077-0.13l-2.39-2.26c-0.065-0.059-0.155-0.082-0.24-0.06l-4.3,1.06
		c-0.137,0.042-0.215,0.187-0.173,0.324C472.818,393.36,472.836,393.392,472.86,393.42z"/>
	<path d="M466.79,394.88l2,2.16c0.076,0.082,0.191,0.116,0.3,0.09l4.43-1c0.171-0.045,0.273-0.22,0.228-0.391
		c-0.015-0.057-0.045-0.108-0.088-0.149l-2.29-2.16c-0.077-0.073-0.188-0.1-0.29-0.07l-4.16,1c-0.167,0.058-0.256,0.24-0.198,0.407
		C466.737,394.809,466.76,394.847,466.79,394.88z"/>
	<path d="M460.22,399.98l1.51,2.42c0.07,0.116,0.208,0.173,0.34,0.14l5.11-1.14c0.168-0.032,0.278-0.195,0.246-0.363
		c-0.009-0.046-0.028-0.09-0.056-0.127l-1.68-2.34c-0.075-0.098-0.198-0.148-0.32-0.13l-5,1.06
		c-0.165,0.063-0.248,0.248-0.185,0.413C460.194,399.937,460.206,399.959,460.22,399.98z"/>
	<path d="M426.71,400.88l5.05-1.17c0.113-0.027,0.231,0.017,0.3,0.11l0.89,1.17c0.097,0.127,0.073,0.309-0.054,0.407
		c-0.034,0.026-0.074,0.044-0.116,0.053l-5.23,1.22c-0.126,0.03-0.257-0.027-0.32-0.14l-0.71-1.22
		c-0.081-0.138-0.034-0.316,0.104-0.397C426.651,400.898,426.68,400.886,426.71,400.88z"/>
	<path d="M433.66,399.37l5-1.17c0.113-0.03,0.233,0.014,0.3,0.11l0.89,1.16c0.099,0.133,0.071,0.321-0.063,0.42
		c-0.032,0.024-0.069,0.041-0.107,0.05l-5.23,1.22c-0.126,0.027-0.254-0.03-0.32-0.14l-0.71-1.22
		c-0.077-0.14-0.027-0.317,0.114-0.394C433.572,399.384,433.616,399.372,433.66,399.37z"/>
	<path d="M440.37,397.88l5-1.16c0.111-0.032,0.23,0.008,0.3,0.1l0.89,1.17c0.097,0.127,0.073,0.309-0.054,0.407
		c-0.034,0.026-0.074,0.044-0.116,0.053l-5.23,1.22c-0.126,0.03-0.257-0.027-0.32-0.14l-0.71-1.21
		c-0.078-0.146-0.022-0.328,0.124-0.406C440.29,397.895,440.329,397.883,440.37,397.88z"/>
	<path d="M446.9,396.43l5-1.16c0.113-0.03,0.233,0.014,0.3,0.11l0.89,1.16c0.099,0.133,0.071,0.321-0.063,0.42
		c-0.032,0.024-0.069,0.041-0.107,0.05l-5.13,1.21c-0.124,0.035-0.256-0.018-0.32-0.13l-0.71-1.22
		c-0.089-0.139-0.049-0.325,0.091-0.414C446.866,396.445,446.883,396.437,446.9,396.43z"/>
	<path d="M453.56,394.96l5-1.16c0.121-0.023,0.244,0.024,0.32,0.12l0.86,1.13c0.105,0.142,0.074,0.343-0.068,0.447
		c-0.034,0.025-0.071,0.043-0.112,0.053l-5.19,1.21c-0.134,0.028-0.27-0.033-0.34-0.15l-0.69-1.18
		c-0.086-0.154-0.03-0.349,0.124-0.435C453.494,394.978,453.526,394.966,453.56,394.96z"/>
	<path d="M460.02,393.62l5-1.16c0.119-0.033,0.246,0.011,0.32,0.11l0.86,1.13c0.105,0.142,0.074,0.343-0.068,0.447
		c-0.034,0.025-0.071,0.043-0.112,0.053l-5.19,1.21c-0.134,0.028-0.27-0.033-0.34-0.15l-0.7-1.18
		c-0.084-0.149-0.032-0.338,0.117-0.422C459.942,393.638,459.98,393.625,460.02,393.62z"/>
	<path d="M466.33,392.3l4.63-1.12c0.109-0.029,0.225,0.006,0.3,0.09l0.9,0.94c0.12,0.122,0.119,0.318-0.002,0.438
		c-0.041,0.04-0.092,0.069-0.148,0.082l-4.58,1.15c-0.104,0.029-0.216-0.001-0.29-0.08l-1-1c-0.104-0.143-0.072-0.343,0.072-0.447
		C466.247,392.328,466.287,392.309,466.33,392.3z"/>
	<path d="M472.47,390.88l4.77-1.16c0.087-0.023,0.179,0.004,0.24,0.07l1,1.05c0.096,0.091,0.1,0.243,0.009,0.339
		c-0.035,0.037-0.08,0.061-0.129,0.071l-4.71,1.19c-0.087,0.019-0.177-0.007-0.24-0.07l-1.05-1.07
		c-0.099-0.097-0.1-0.255-0.004-0.354C472.388,390.915,472.427,390.892,472.47,390.88z"/>
	<path d="M478.59,389.45l4.77-1.16c0.087-0.029,0.182-0.001,0.24,0.07l1,1c0.095,0.108,0.084,0.272-0.024,0.367
		c-0.028,0.024-0.06,0.042-0.096,0.053l-4.69,1.23c-0.087,0.017-0.176-0.009-0.24-0.07l-1.08-1.06
		c-0.102-0.093-0.109-0.251-0.016-0.353C478.49,389.487,478.538,389.46,478.59,389.45z"/>
	<path d="M484.71,388.19l4.77-1.16c0.087-0.019,0.177,0.007,0.24,0.07l1,1c0.095,0.108,0.084,0.272-0.024,0.367
		c-0.028,0.024-0.06,0.042-0.096,0.053l-4.71,1.18c-0.09,0.023-0.185-0.004-0.25-0.07l-1.05-1.06
		c-0.077-0.121-0.042-0.282,0.08-0.359C484.682,388.203,484.696,388.196,484.71,388.19z"/>
	<path d="M490.51,386.8l4.92-1.19c0.056-0.032,0.124-0.032,0.18,0l1.09,1.15c0.073,0.067,0.078,0.181,0.011,0.254
		c-0.027,0.029-0.062,0.049-0.101,0.056l-4.82,1.27c-0.055,0.034-0.125,0.034-0.18,0l-1.16-1.17
		c-0.099-0.034-0.153-0.142-0.119-0.241C490.357,386.852,490.429,386.8,490.51,386.8z"/>
	<path d="M496.37,385.55l4.92-1.2c0.066-0.01,0.133,0.012,0.18,0.06l1.1,1.15c0.07,0.078,0.064,0.198-0.014,0.268
		c-0.022,0.02-0.048,0.034-0.076,0.042l-4.86,1.22c-0.056,0.032-0.124,0.032-0.18,0l-1.16-1.21
		c-0.079-0.069-0.087-0.189-0.018-0.268C496.29,385.58,496.328,385.558,496.37,385.55z"/>
	<path d="M502.22,384.21l4.54-1c0.072-0.015,0.145,0.012,0.19,0.07l0.88,1.08c0.063,0.077,0.052,0.19-0.025,0.253
		c-0.022,0.018-0.048,0.031-0.075,0.037l-4.27,1.13c-0.065,0.021-0.135,0.001-0.18-0.05l-1.16-1.17
		c-0.097-0.028-0.153-0.128-0.125-0.225C502.023,384.238,502.123,384.182,502.22,384.21z"/>
	<path d="M507.79,382.93l4.55-1c0.07-0.02,0.145,0.004,0.19,0.06l0.88,1.08c0.064,0.083,0.05,0.202-0.033,0.267
		c-0.02,0.015-0.042,0.027-0.067,0.033l-4.27,1.13c-0.057,0.026-0.123,0.026-0.18,0l-1.16-1.18c-0.108-0.025-0.175-0.132-0.15-0.24
		C507.575,382.972,507.682,382.905,507.79,382.93z"/>
	<path d="M430.25,406.88l1.68,2.39c0.068,0.101,0.192,0.149,0.31,0.12l8.75-2c0.156-0.038,0.251-0.195,0.213-0.35
		c-0.01-0.04-0.028-0.077-0.053-0.109l-1.85-2.45c-0.075-0.091-0.196-0.131-0.31-0.1l-8.56,2.09
		c-0.161,0.059-0.244,0.237-0.185,0.398C430.247,406.872,430.248,406.876,430.25,406.88z"/>
	<path d="M432.9,410.11l1.68,2.66c0.063,0.107,0.189,0.16,0.31,0.13l10.57-2.51c0.156-0.034,0.256-0.189,0.221-0.345
		c-0.01-0.046-0.031-0.089-0.061-0.125l-2.09-2.59c-0.071-0.09-0.189-0.129-0.3-0.1l-10.15,2.44
		c-0.156,0.035-0.254,0.19-0.219,0.347C432.868,410.05,432.882,410.081,432.9,410.11z"/>
	<path d="M435.29,413.63l2,2.89c0.068,0.101,0.192,0.149,0.31,0.12l14-3.46c0.161-0.039,0.26-0.202,0.22-0.363
		c-0.009-0.039-0.027-0.075-0.05-0.107l-2.26-2.89c-0.069-0.093-0.187-0.137-0.3-0.11l-13.84,3.47
		c-0.142,0.075-0.195,0.251-0.12,0.392C435.261,413.593,435.274,413.612,435.29,413.63z"/>
	<path d="M467.34,410.47l2.56,3.09c0.079,0.091,0.203,0.13,0.32,0.1l30.8-7.69c0.163-0.032,0.269-0.19,0.237-0.352
		c-0.013-0.065-0.047-0.124-0.097-0.168l-3.14-3.13c-0.077-0.08-0.193-0.111-0.3-0.08l-30.22,7.73
		c-0.166,0.043-0.266,0.212-0.223,0.377C467.288,410.392,467.31,410.434,467.34,410.47z"/>
	<path d="M499.14,402.5l3,3c0.065,0.066,0.16,0.093,0.25,0.07l6.31-1.69c0.133-0.036,0.212-0.173,0.176-0.306
		c-0.012-0.043-0.035-0.082-0.066-0.114l-3.13-3.07c-0.062-0.065-0.155-0.088-0.24-0.06l-6.2,1.71
		c-0.137,0.018-0.233,0.143-0.216,0.28C499.034,402.394,499.077,402.46,499.14,402.5z"/>
	<path d="M514.39,400.59l1.37,1.46c0.046,0.049,0.115,0.068,0.18,0.05l4.68-1.26c0.097-0.022,0.158-0.118,0.136-0.215
		c-0.008-0.037-0.028-0.07-0.056-0.095l-1.67-1.57c-0.056-0.03-0.124-0.03-0.18,0l-4.38,1.37c-0.091,0.04-0.132,0.146-0.092,0.237
		C514.381,400.575,514.385,400.583,514.39,400.59z"/>
	<path d="M518.37,397.48l1.64,1.72c0.046,0.055,0.122,0.075,0.19,0.05l4.29-1.49c0.096-0.026,0.152-0.125,0.126-0.221
		c-0.009-0.035-0.029-0.066-0.056-0.089l-1.6-1.45c-0.057-0.029-0.123-0.029-0.18,0l-4.33,1.21
		c-0.095,0.045-0.134,0.159-0.089,0.254C518.364,397.469,518.367,397.475,518.37,397.48z"/>
	<path d="M521.53,400.46l-1.18-1c-0.078-0.07-0.085-0.19-0.016-0.268c0.021-0.023,0.047-0.041,0.076-0.052l4.27-1.48
		c0.061-0.04,0.139-0.04,0.2,0l1.33,1.29c0.076,0.073,0.078,0.193,0.006,0.269c-0.023,0.024-0.053,0.042-0.086,0.051l-4.44,1.15
		C521.645,400.456,521.587,400.47,521.53,400.46z"/>
	<path d="M525.91,397.82c0.37,0.35,1,1.06,1.27,1.3c0.047,0.047,0.115,0.066,0.18,0.05l4.45-1.21
		c0.101-0.028,0.16-0.133,0.131-0.234c-0.009-0.033-0.027-0.062-0.051-0.086l-1.58-1.42c-0.055-0.034-0.125-0.034-0.18,0l-4.14,1.33
		c-0.092,0.037-0.137,0.142-0.099,0.234C525.896,397.797,525.902,397.809,525.91,397.82z"/>
	<path d="M513.42,395l2.39,2.3c0.041,0.049,0.108,0.069,0.17,0.05l11.49-3c0.097-0.021,0.159-0.117,0.138-0.214
		c-0.009-0.042-0.033-0.08-0.068-0.106l-2.75-2.34c-0.053-0.03-0.117-0.03-0.17,0l-11.08,3c-0.099,0.002-0.178,0.085-0.175,0.184
		C513.366,394.922,513.386,394.967,513.42,395z"/>
	<path d="M512.64,391.46l2.46,2.19c0.054,0.024,0.116,0.024,0.17,0l8.64-2c0.102-0.024,0.166-0.126,0.142-0.228
		c-0.009-0.04-0.031-0.076-0.062-0.102l-2.83-2.37c-0.054-0.024-0.116-0.024-0.17,0l-8.27,2.23
		c-0.096,0.043-0.139,0.155-0.096,0.251C512.628,391.441,512.634,391.451,512.64,391.46z"/>
	<path d="M513.43,387.69l2.33,2.08c0.053,0.028,0.117,0.028,0.17,0l4.43-1c0.106-0.03,0.168-0.141,0.137-0.247
		c-0.009-0.031-0.025-0.059-0.047-0.083l-2.76-2.38c-0.056-0.03-0.124-0.03-0.18,0l-4,1.28c-0.104,0.011-0.18,0.105-0.168,0.21
		C513.348,387.607,513.381,387.659,513.43,387.69z"/>
	<path d="M507.36,385.62l2.26,2.05c0.054,0.025,0.116,0.025,0.17,0l7-1.67c0.101-0.028,0.16-0.133,0.131-0.234
		c-0.009-0.033-0.027-0.062-0.051-0.086l-2.69-2.25c-0.054-0.024-0.116-0.024-0.17,0l-6.6,1.87c-0.097,0.04-0.143,0.152-0.102,0.248
		C507.319,385.576,507.337,385.601,507.36,385.62z"/>
</g>
<path fill="#464A5F" d="M428.03,402.54l1.53,2.46c0.067,0.103,0.19,0.154,0.31,0.13l5.17-1.15c0.16-0.043,0.255-0.207,0.213-0.367
	c-0.009-0.033-0.023-0.065-0.043-0.093l-1.71-2.38c-0.07-0.093-0.185-0.139-0.3-0.12l-5,1.07c-0.159,0.046-0.251,0.212-0.206,0.371
	C428.002,402.489,428.014,402.516,428.03,402.54z"/>
<path fill="#464A5F" d="M434.79,401.12l1.52,2.46c0.069,0.107,0.197,0.159,0.32,0.13l5.16-1.15c0.157-0.033,0.257-0.187,0.223-0.344
	c-0.009-0.042-0.027-0.082-0.053-0.116l-1.7-2.38c-0.069-0.093-0.187-0.137-0.3-0.11l-5,1.07c-0.155,0.04-0.248,0.198-0.208,0.353
	C434.76,401.064,434.773,401.093,434.79,401.12z"/>
<path fill="#464A5F" d="M441.33,399.7l1.53,2.46c0.063,0.107,0.189,0.16,0.31,0.13l5.17-1.15c0.156-0.037,0.252-0.193,0.216-0.349
	c-0.009-0.036-0.024-0.071-0.046-0.101l-1.72-2.39c-0.069-0.093-0.187-0.137-0.3-0.11l-5,1.07c-0.154,0.045-0.242,0.206-0.198,0.359
	C441.301,399.648,441.313,399.675,441.33,399.7z"/>
<path fill="#464A5F" d="M447.79,398.3l1.51,2.43c0.07,0.116,0.208,0.173,0.34,0.14l5.12-1.14c0.171-0.046,0.271-0.222,0.225-0.393
	c-0.009-0.035-0.025-0.068-0.045-0.097l-1.7-2.36c-0.07-0.104-0.197-0.156-0.32-0.13l-5,1.06c-0.163,0.068-0.24,0.256-0.171,0.419
	C447.759,398.254,447.773,398.278,447.79,398.3z"/>
<path fill="#464A5F" d="M447.26,402.06l1.53,2.47c0.069,0.1,0.19,0.151,0.31,0.13l5.16-1.15c0.157-0.033,0.257-0.187,0.223-0.344
	c-0.009-0.042-0.027-0.082-0.053-0.116l-1.7-2.38c-0.068-0.095-0.185-0.142-0.3-0.12l-5,1.07c-0.155,0.04-0.248,0.198-0.208,0.353
	C447.23,402.004,447.243,402.033,447.26,402.06z"/>
<path fill="#464A5F" d="M440.57,403.48l1.53,2.46c0.07,0.106,0.195,0.161,0.32,0.14l5.16-1.15c0.157-0.033,0.257-0.187,0.223-0.344
	c-0.009-0.042-0.027-0.082-0.053-0.116l-1.71-2.38c-0.066-0.097-0.185-0.145-0.3-0.12l-5,1.07c-0.158,0.049-0.247,0.216-0.199,0.375
	C440.548,403.438,440.558,403.46,440.57,403.48z"/>
<path fill="#464A5F" d="M444.92,406.51l1.53,2.46c0.066,0.109,0.196,0.162,0.32,0.13l5.16-1.15c0.157-0.033,0.257-0.187,0.223-0.344
	c-0.009-0.042-0.027-0.082-0.053-0.116l-1.71-2.38c-0.067-0.096-0.187-0.14-0.3-0.11l-5,1.06c-0.159,0.046-0.251,0.212-0.206,0.371
	C444.892,406.459,444.904,406.486,444.92,406.51z"/>
<path fill="#464A5F" d="M451.07,409.15l1.53,2.47c0.065,0.105,0.19,0.157,0.31,0.13l5.16-1.15c0.161-0.038,0.261-0.199,0.223-0.361
	c-0.008-0.035-0.023-0.069-0.043-0.099l-1.71-2.38c-0.068-0.095-0.185-0.142-0.3-0.12l-5,1.07c-0.155,0.04-0.248,0.198-0.208,0.353
	C451.04,409.094,451.053,409.123,451.07,409.15z"/>
<path fill="#464A5F" d="M452.14,413.44l2.47,3.09c0.071,0.09,0.189,0.129,0.3,0.1l5.2-1.35c0.16-0.044,0.254-0.209,0.21-0.369
	c-0.01-0.037-0.027-0.071-0.05-0.101l-2.56-3.12c-0.071-0.09-0.189-0.129-0.3-0.1l-5.12,1.38c-0.158,0.048-0.248,0.216-0.199,0.375
	C452.101,413.379,452.118,413.411,452.14,413.44z"/>
<path fill="#464A5F" d="M458.94,411.73l2.54,3.19c0.071,0.09,0.189,0.129,0.3,0.1l6.79-1.88c0.158-0.048,0.248-0.216,0.199-0.375
	c-0.011-0.035-0.027-0.067-0.049-0.095l-2.56-3.12c-0.071-0.09-0.189-0.129-0.3-0.1l-6.76,1.82c-0.156,0.038-0.251,0.195-0.213,0.35
	C458.897,411.66,458.915,411.698,458.94,411.73z"/>
<path fill="#464A5F" d="M445.49,415.08l2.47,3.09c0.071,0.09,0.189,0.129,0.3,0.1l5.2-1.35c0.16-0.044,0.254-0.209,0.21-0.369
	c-0.01-0.037-0.027-0.071-0.05-0.101l-2.56-3.12c-0.071-0.09-0.189-0.129-0.3-0.1l-5.12,1.38c-0.158,0.048-0.248,0.216-0.199,0.375
	C445.451,415.019,445.468,415.051,445.49,415.08z"/>
<path fill="#464A5F" d="M438.46,416.88l2.47,3.1c0.071,0.09,0.189,0.129,0.3,0.1l5.2-1.35c0.16-0.044,0.254-0.209,0.21-0.369
	c-0.01-0.037-0.027-0.071-0.05-0.101l-2.55-3.12c-0.076-0.089-0.196-0.128-0.31-0.1l-5.12,1.38
	c-0.154,0.043-0.245,0.202-0.203,0.357C438.418,416.814,438.436,416.849,438.46,416.88z"/>
<path fill="#464A5F" d="M454.24,396.79l1.5,2.43c0.073,0.114,0.208,0.17,0.34,0.14l5.12-1.14c0.167-0.037,0.273-0.203,0.236-0.37
	c-0.01-0.044-0.029-0.085-0.056-0.12l-1.68-2.35c-0.073-0.1-0.199-0.148-0.32-0.12l-4.94,1.06c-0.168,0.034-0.276,0.198-0.242,0.365
	C454.205,396.723,454.22,396.758,454.24,396.79z"/>
<path fill="#464A5F" d="M453.79,400.57l1.5,2.43c0.073,0.114,0.208,0.17,0.34,0.14l5.12-1.14c0.167-0.037,0.273-0.203,0.236-0.37
	c-0.01-0.044-0.029-0.085-0.056-0.12l-1.68-2.34c-0.07-0.104-0.197-0.156-0.32-0.13l-4.94,1.06
	c-0.168,0.034-0.276,0.198-0.242,0.365C453.755,400.503,453.77,400.538,453.79,400.57z"/>
<path fill="#464A5F" d="M460.51,395.37l1.5,2.43c0.073,0.114,0.208,0.17,0.34,0.14l5.12-1.14c0.167-0.037,0.273-0.203,0.236-0.37
	c-0.01-0.044-0.029-0.085-0.056-0.12l-1.68-2.35c-0.075-0.098-0.199-0.145-0.32-0.12l-4.94,1.04
	c-0.169,0.027-0.284,0.187-0.257,0.356C460.461,395.284,460.481,395.33,460.51,395.37z"/>
<path fill="#464A5F" d="M478.85,391.37l2.12,2.26c0.065,0.06,0.153,0.086,0.24,0.07l4.57-1.06c0.135-0.027,0.224-0.158,0.197-0.294
	c-0.01-0.052-0.037-0.1-0.077-0.136l-2.39-2.26c-0.066-0.058-0.155-0.08-0.24-0.06l-4.3,1.06c-0.134,0.031-0.218,0.166-0.186,0.3
	C478.794,391.296,478.817,391.337,478.85,391.37z"/>
<path fill="#464A5F" d="M484.71,390.02l2.13,2.25c0.058,0.07,0.151,0.101,0.24,0.08l4.57-1.06c0.135-0.027,0.224-0.158,0.197-0.293
	c-0.008-0.043-0.028-0.083-0.057-0.117l-2.39-2.26c-0.065-0.059-0.155-0.082-0.24-0.06l-4.3,1.06
	c-0.139,0.035-0.224,0.177-0.188,0.316C484.679,389.966,484.692,389.994,484.71,390.02z"/>
<path fill="#464A5F" d="M478.97,395.03l2.13,2.26c0.063,0.063,0.153,0.089,0.24,0.07l4.57-1.06c0.135-0.027,0.224-0.158,0.197-0.294
	c-0.01-0.052-0.037-0.1-0.077-0.136l-2.4-2.26c-0.061-0.059-0.148-0.082-0.23-0.06l-4.3,1.06c-0.139,0.037-0.221,0.18-0.183,0.319
	C478.927,394.966,478.945,395.001,478.97,395.03z"/>
<path fill="#464A5F" d="M472.96,396.43l2,2.15c0.076,0.082,0.191,0.116,0.3,0.09l4.43-1c0.167-0.039,0.271-0.205,0.232-0.372
	c-0.014-0.061-0.046-0.116-0.092-0.158l-2.29-2.16c-0.073-0.081-0.186-0.112-0.29-0.08l-4.16,1
	c-0.166,0.043-0.265,0.212-0.222,0.378C472.883,396.337,472.915,396.389,472.96,396.43z"/>
<path fill="#464A5F" d="M477.53,403.23l2,2.16c0.076,0.082,0.191,0.116,0.3,0.09l4.43-1c0.171-0.045,0.273-0.22,0.228-0.391
	c-0.015-0.057-0.045-0.108-0.088-0.149l-2.29-2.16c-0.077-0.073-0.188-0.1-0.29-0.07l-4.16,1c-0.167,0.058-0.256,0.24-0.198,0.407
	C477.477,403.159,477.5,403.197,477.53,403.23z"/>
<path fill="#464A5F" d="M471.26,404.65l2,2.16c0.078,0.079,0.191,0.112,0.3,0.09l4.42-1c0.168-0.034,0.276-0.198,0.242-0.366
	c-0.013-0.063-0.045-0.12-0.092-0.164l-2.29-2.16c-0.079-0.07-0.186-0.1-0.29-0.08l-4.17,1c-0.166,0.062-0.25,0.246-0.188,0.412
	C471.207,404.582,471.23,404.619,471.26,404.65z"/>
<path fill="#464A5F" d="M464.89,406.23l2,2.16c0.079,0.077,0.191,0.111,0.3,0.09l4.43-1c0.166,0.047,0.338-0.049,0.385-0.215
	c0.047-0.166-0.049-0.338-0.215-0.385l0,0l-2.29-2.16c-0.075-0.077-0.186-0.107-0.29-0.08l-4.16,1
	c-0.17-0.017-0.322,0.108-0.339,0.278C464.699,406.05,464.77,406.175,464.89,406.23z"/>
<path fill="#464A5F" d="M458.16,407.56l2.06,2.19c0.072,0.075,0.179,0.106,0.28,0.08l4.47-1c0.16-0.041,0.257-0.205,0.216-0.365
	c-0.013-0.051-0.039-0.097-0.076-0.135l-2.33-2.2c-0.075-0.063-0.174-0.089-0.27-0.07l-4.21,1c-0.157,0.03-0.26,0.182-0.23,0.339
	C458.081,407.461,458.113,407.518,458.16,407.56z"/>
<path fill="#464A5F" d="M471.2,400.71l2,2.16c0.075,0.084,0.191,0.119,0.3,0.09l4.42-1c0.172-0.041,0.278-0.213,0.237-0.385
	c-0.014-0.059-0.044-0.112-0.087-0.155l-2.28-2.18c-0.078-0.071-0.188-0.098-0.29-0.07l-4.17,1
	c-0.167,0.038-0.271,0.204-0.233,0.371C471.112,400.607,471.148,400.667,471.2,400.71z"/>
<path fill="#464A5F" d="M465.08,402.13l2,2.16c0.078,0.079,0.191,0.112,0.3,0.09l4.43-1c0.167-0.039,0.271-0.205,0.232-0.372
	c-0.014-0.061-0.046-0.116-0.092-0.158l-2.29-2.16c-0.078-0.072-0.186-0.102-0.29-0.08l-4.16,1c-0.167,0.058-0.256,0.24-0.198,0.407
	C465.027,402.059,465.05,402.097,465.08,402.13z"/>
<path fill="#464A5F" d="M458.53,403.52l2,2.15c0.074,0.086,0.189,0.124,0.3,0.1l4.42-1c0.168-0.034,0.276-0.198,0.242-0.366
	c-0.013-0.063-0.045-0.12-0.092-0.164l-2.29-2.16c-0.074-0.079-0.186-0.109-0.29-0.08l-4.17,1c-0.163,0.052-0.254,0.226-0.202,0.389
	C458.464,403.439,458.492,403.484,458.53,403.52z"/>
<path fill="#464A5F" d="M451.79,405.07l2.06,2.19c0.076,0.075,0.186,0.105,0.29,0.08l4.47-1c0.159-0.046,0.251-0.212,0.206-0.371
	c-0.014-0.049-0.04-0.093-0.076-0.129l-2.32-2.19c-0.071-0.07-0.172-0.1-0.27-0.08l-4.21,1c-0.162,0.037-0.263,0.198-0.226,0.359
	C451.726,404.982,451.752,405.031,451.79,405.07z"/>
<path fill="#464A5F" d="M477.5,399.23l2,2.16c0.078,0.079,0.191,0.112,0.3,0.09l4.42-1c0.168-0.034,0.276-0.198,0.242-0.366
	c-0.013-0.063-0.045-0.12-0.092-0.164l-2.29-2.16c-0.079-0.07-0.186-0.1-0.29-0.08l-4.17,1c-0.166,0.062-0.25,0.246-0.188,0.412
	C477.447,399.162,477.47,399.199,477.5,399.23z"/>
<path fill="#464A5F" d="M466.79,398l2,2.16c0.075,0.084,0.191,0.119,0.3,0.09l4.42-1c0.167-0.039,0.271-0.205,0.232-0.372
	c-0.014-0.061-0.046-0.116-0.092-0.158l-2.28-2.16c-0.079-0.07-0.186-0.1-0.29-0.08l-4.17,1c-0.163,0.052-0.253,0.226-0.202,0.389
	C466.724,397.919,466.752,397.964,466.79,398z"/>
<path fill="#464A5F" d="M490.37,388.58l2.23,2.37c0.047,0.047,0.115,0.066,0.18,0.05l4.72-1.09c0.102-0.024,0.165-0.126,0.141-0.229
	c-0.008-0.035-0.026-0.066-0.051-0.091l-2.51-2.37c-0.057-0.029-0.123-0.029-0.18,0l-4.44,1.1c-0.093,0.036-0.139,0.14-0.103,0.233
	C490.36,388.562,490.365,388.571,490.37,388.58z"/>
<path fill="#464A5F" d="M496.07,387.32l2.23,2.37c0.051,0.04,0.116,0.058,0.18,0.05l4.72-1.09c0.102-0.024,0.165-0.126,0.141-0.229
	c-0.008-0.035-0.026-0.066-0.051-0.091l-2.5-2.37c-0.044-0.045-0.108-0.064-0.17-0.05l-4.45,1.1
	c-0.102,0.024-0.166,0.126-0.142,0.228C496.035,387.268,496.05,387.297,496.07,387.32z"/>
<path fill="#464A5F" d="M501.94,385.97l2,2.2c0.059,0.034,0.131,0.034,0.19,0l4.4-1.2c0.1-0.033,0.154-0.14,0.122-0.24
	c-0.01-0.031-0.028-0.058-0.052-0.08l-2.27-1.92c-0.051-0.022-0.109-0.022-0.16,0l-4.17,0.92c-0.096,0.025-0.154,0.123-0.129,0.22
	C501.882,385.91,501.906,385.946,501.94,385.97z"/>
<path fill="#464A5F" d="M508.08,388.02l2,2.2c0.045,0.051,0.115,0.071,0.18,0.05l4.4-1.2c0.097-0.021,0.159-0.117,0.138-0.214
	c-0.009-0.042-0.033-0.08-0.068-0.106l-2.23-1.87c-0.05-0.025-0.11-0.025-0.16,0l-4.16,0.92
	C508.098,387.84,508.056,387.932,508.08,388.02z"/>
<path fill="#464A5F" d="M507.34,392.01l1.93,2.09c0.067,0.063,0.16,0.089,0.25,0.07l4.24-1.16c0.135-0.03,0.219-0.164,0.189-0.299
	c-0.013-0.056-0.044-0.106-0.089-0.141l-2.15-1.81c-0.062-0.049-0.142-0.071-0.22-0.06l-4,0.89
	c-0.141,0.028-0.232,0.165-0.204,0.306C507.294,391.938,507.313,391.977,507.34,392.01z"/>
<path fill="#464A5F" d="M502.33,397.08l1.93,2.09c0.061,0.073,0.16,0.1,0.25,0.07l4.28-1.16c0.133-0.036,0.213-0.172,0.177-0.306
	c-0.013-0.048-0.04-0.091-0.077-0.124l-2.19-1.77c-0.061-0.051-0.143-0.069-0.22-0.05l-4,0.89c-0.133,0.038-0.209,0.177-0.171,0.31
	C502.314,397.047,502.321,397.064,502.33,397.08z"/>
<path fill="#464A5F" d="M496.31,398.66l1.93,2.09c0.067,0.063,0.16,0.089,0.25,0.07l4.24-1.16c0.135-0.03,0.219-0.164,0.189-0.299
	c-0.013-0.056-0.044-0.106-0.089-0.141l-2.15-1.81c-0.062-0.049-0.142-0.071-0.22-0.06l-4,0.89
	c-0.141,0.028-0.232,0.165-0.204,0.306C496.264,398.588,496.283,398.627,496.31,398.66z"/>
<path fill="#464A5F" d="M508,395.6l1.93,2.09c0.062,0.07,0.16,0.098,0.25,0.07l4.25-1.16c0.132-0.04,0.207-0.179,0.168-0.311
	c-0.014-0.046-0.041-0.087-0.078-0.119l-2.15-1.82c-0.061-0.051-0.143-0.069-0.22-0.05l-4,0.88
	c-0.141,0.028-0.232,0.165-0.204,0.306C507.954,395.528,507.973,395.567,508,395.6z"/>
<path fill="#464A5F" d="M507.02,400.11l2.91,2.61c0.065,0.059,0.157,0.079,0.24,0.05l4.21-1.19c0.133-0.036,0.213-0.172,0.177-0.306
	c-0.013-0.048-0.04-0.091-0.077-0.124l-3.14-2.75c-0.074-0.045-0.166-0.045-0.24,0l-4,1.33c-0.123,0.063-0.171,0.214-0.108,0.337
	C507,400.082,507.009,400.097,507.02,400.11z"/>
<path fill="#464A5F" d="M496.79,390.88l2,2.2c0.045,0.051,0.114,0.074,0.18,0.06l4.4-1.2c0.101-0.028,0.161-0.133,0.133-0.234
	c-0.01-0.038-0.032-0.071-0.063-0.096l-2.27-1.91c-0.049-0.029-0.11-0.029-0.16,0l-4.16,0.91c-0.09,0.054-0.12,0.17-0.066,0.26
	C496.786,390.874,496.788,390.877,496.79,390.88z"/>
<path fill="#464A5F" d="M491.14,392.26l1.93,2.09c0.065,0.066,0.16,0.093,0.25,0.07l4.25-1.16c0.132-0.04,0.207-0.179,0.168-0.311
	c-0.014-0.046-0.041-0.087-0.078-0.119l-2.15-1.82c-0.061-0.051-0.143-0.069-0.22-0.05l-4,0.88
	c-0.141,0.028-0.232,0.165-0.204,0.306C491.094,392.188,491.113,392.227,491.14,392.26z"/>
<path fill="#464A5F" d="M489.98,396.3l1.93,2.08c0.061,0.073,0.16,0.1,0.25,0.07l4.24-1.15c0.137-0.042,0.215-0.187,0.173-0.325
	c-0.014-0.044-0.039-0.084-0.073-0.115l-2.16-1.82c-0.061-0.051-0.143-0.069-0.22-0.05l-4,0.89
	c-0.136,0.022-0.229,0.151-0.207,0.287C489.922,396.217,489.945,396.263,489.98,396.3z"/>
<path fill="#464A5F" d="M483.99,397.75l1.93,2.08c0.061,0.073,0.16,0.1,0.25,0.07l4.24-1.15c0.137-0.042,0.215-0.187,0.173-0.325
	c-0.014-0.044-0.039-0.084-0.073-0.115l-2.16-1.82c-0.057-0.051-0.136-0.069-0.21-0.05l-4,0.89c-0.137,0.017-0.234,0.143-0.216,0.28
	C483.93,397.662,483.953,397.711,483.99,397.75z"/>
<path fill="#464A5F" d="M485.06,393.62l1.93,2.08c0.061,0.073,0.16,0.1,0.25,0.07l4.24-1.15c0.137-0.042,0.215-0.187,0.173-0.325
	c-0.014-0.044-0.039-0.084-0.073-0.115l-2.15-1.81c-0.062-0.049-0.142-0.071-0.22-0.06l-4,0.89c-0.137,0.017-0.234,0.143-0.216,0.28
	C485,393.532,485.023,393.581,485.06,393.62z"/>
<path fill="#464A5F" d="M490.07,400.01l1.93,2.09c0.061,0.073,0.16,0.1,0.25,0.07l4.24-1.15c0.135-0.03,0.219-0.164,0.189-0.299
	c-0.013-0.056-0.044-0.106-0.089-0.141l-2.15-1.82c-0.061-0.051-0.143-0.069-0.22-0.05l-4,0.89c-0.136,0.022-0.229,0.15-0.207,0.286
	C490.02,399.932,490.04,399.975,490.07,400.01z"/>
<path fill="#464A5F" d="M484.19,401.61l1.83,2c0.081,0.082,0.198,0.116,0.31,0.09l4.09-1.12c0.166-0.042,0.266-0.211,0.224-0.377
	c-0.016-0.064-0.053-0.121-0.104-0.163l-2-1.72c-0.072-0.068-0.174-0.094-0.27-0.07l-3.88,0.86c-0.17,0.024-0.288,0.18-0.264,0.35
	C484.133,401.515,484.155,401.567,484.19,401.61z"/>
<path fill="#464A5F" d="M502.63,389.4l2,2.2c0.048,0.052,0.12,0.075,0.19,0.06l4.4-1.2c0.101-0.028,0.161-0.133,0.133-0.234
	c-0.01-0.038-0.032-0.071-0.063-0.096l-2.27-1.91c-0.049-0.029-0.11-0.029-0.16,0l-4.16,0.92c-0.089,0.044-0.125,0.152-0.081,0.241
	C502.623,389.388,502.626,389.394,502.63,389.4z"/>
<path fill="#464A5F" d="M501.79,393.36l1.93,2.09c0.061,0.073,0.16,0.1,0.25,0.07l4.24-1.15c0.137-0.042,0.215-0.187,0.173-0.325
	c-0.014-0.044-0.039-0.084-0.073-0.115l-2.16-1.82c-0.061-0.051-0.143-0.069-0.22-0.05l-4,0.89
	c-0.132,0.015-0.226,0.135-0.211,0.266C501.726,393.271,501.751,393.322,501.79,393.36z"/>
<path fill="#464A5F" d="M496.06,394.94l1.93,2.09c0.064,0.068,0.16,0.095,0.25,0.07l4.24-1.16c0.133-0.036,0.213-0.172,0.177-0.306
	c-0.013-0.048-0.04-0.091-0.077-0.124l-2.16-1.82c-0.057-0.051-0.136-0.069-0.21-0.05l-4,0.88c-0.141,0.028-0.232,0.165-0.204,0.306
	C496.014,394.868,496.033,394.907,496.06,394.94z"/>
<path fill="#464A5F" d="M472.86,392.66l2.13,2.22c0.061,0.066,0.153,0.093,0.24,0.07l4.57-1.05c0.135-0.031,0.218-0.166,0.187-0.3
	c-0.012-0.05-0.039-0.096-0.077-0.13l-2.39-2.26c-0.064-0.061-0.153-0.087-0.24-0.07l-4.3,1.07
	c-0.137,0.015-0.236,0.139-0.221,0.276C472.767,392.556,472.804,392.619,472.86,392.66z"/>
<path fill="#464A5F" d="M466.79,394.16l2,2.15c0.074,0.086,0.191,0.121,0.3,0.09l4.43-1c0.167-0.039,0.271-0.205,0.232-0.372
	c-0.014-0.061-0.046-0.116-0.092-0.158l-2.29-2.16c-0.073-0.081-0.186-0.112-0.29-0.08l-4.16,1
	c-0.166,0.043-0.265,0.212-0.222,0.378C466.713,394.067,466.745,394.119,466.79,394.16z"/>
<path fill="#464A5F" d="M460.22,399.22l1.51,2.43c0.073,0.114,0.208,0.17,0.34,0.14l5.11-1.14c0.172-0.042,0.277-0.215,0.236-0.386
	c-0.009-0.037-0.024-0.072-0.046-0.104l-1.68-2.35c-0.073-0.1-0.199-0.148-0.32-0.12l-5,1.06c-0.161,0.057-0.246,0.235-0.188,0.396
	C460.191,399.172,460.204,399.197,460.22,399.22z"/>
<path fill="#464A5F" d="M426.71,400.12l5.05-1.17c0.113-0.022,0.228,0.021,0.3,0.11l0.89,1.17c0.097,0.127,0.073,0.309-0.054,0.407
	c-0.034,0.026-0.074,0.044-0.116,0.053l-5.23,1.19c-0.126,0.03-0.257-0.027-0.32-0.14l-0.71-1.21
	c-0.067-0.151,0.001-0.329,0.152-0.396C426.684,400.128,426.697,400.124,426.71,400.12z"/>
<path fill="#464A5F" d="M433.66,398.61l5-1.17c0.113-0.022,0.228,0.021,0.3,0.11l0.89,1.17c0.097,0.127,0.073,0.309-0.054,0.407
	c-0.034,0.026-0.074,0.044-0.116,0.053l-5.23,1.22c-0.126,0.03-0.257-0.027-0.32-0.14l-0.71-1.22
	c-0.077-0.14-0.027-0.317,0.114-0.394C433.572,398.624,433.616,398.612,433.66,398.61z"/>
<path fill="#464A5F" d="M440.37,397.17l5-1.17c0.113-0.027,0.231,0.017,0.3,0.11l0.89,1.16c0.099,0.133,0.071,0.321-0.063,0.42
	c-0.032,0.024-0.069,0.041-0.107,0.05l-5.23,1.22c-0.126,0.027-0.254-0.03-0.32-0.14l-0.71-1.22
	c-0.077-0.14-0.027-0.317,0.114-0.394C440.282,397.184,440.326,397.172,440.37,397.17z"/>
<path fill="#464A5F" d="M446.9,395.68l5-1.17c0.113-0.027,0.231,0.017,0.3,0.11l0.89,1.17c0.094,0.136,0.059,0.323-0.077,0.417
	c-0.028,0.019-0.06,0.034-0.093,0.043l-5.13,1.22c-0.126,0.03-0.257-0.027-0.32-0.14l-0.71-1.22
	c-0.088-0.134-0.05-0.314,0.084-0.401C446.861,395.697,446.88,395.687,446.9,395.68z"/>
<path fill="#464A5F" d="M453.56,394.21l5-1.16c0.119-0.025,0.242,0.017,0.32,0.11l0.86,1.14c0.103,0.136,0.077,0.331-0.06,0.434
	c-0.036,0.027-0.077,0.046-0.12,0.056l-5.19,1.21c-0.134,0.028-0.27-0.033-0.34-0.15l-0.69-1.18
	c-0.081-0.157-0.019-0.35,0.138-0.431C453.504,394.226,453.531,394.216,453.56,394.21z"/>
<path fill="#464A5F" d="M460.02,392.88l5-1.16c0.121-0.028,0.247,0.02,0.32,0.12l0.86,1.13c0.103,0.136,0.077,0.331-0.06,0.434
	c-0.036,0.027-0.077,0.046-0.12,0.056l-5.19,1.21c-0.134,0.028-0.27-0.033-0.34-0.15l-0.68-1.18
	c-0.086-0.148-0.035-0.338,0.113-0.424C459.953,392.899,459.986,392.887,460.02,392.88z"/>
<path fill="#464A5F" d="M466.33,391.55l4.63-1.13c0.109-0.024,0.223,0.01,0.3,0.09l0.9,0.95c0.119,0.115,0.122,0.305,0.007,0.424
	c-0.042,0.044-0.097,0.074-0.157,0.086l-4.58,1.15c-0.104,0.029-0.216-0.001-0.29-0.08l-1-1c-0.102-0.137-0.074-0.331,0.063-0.434
	C466.24,391.578,466.284,391.559,466.33,391.55z"/>
<path fill="#464A5F" d="M472.47,390.13l4.77-1.16c0.087-0.017,0.176,0.009,0.24,0.07l1,1c0.098,0.098,0.097,0.256,0,0.354
	c-0.033,0.033-0.074,0.056-0.12,0.066l-4.71,1.18c-0.087,0.023-0.179-0.004-0.24-0.07l-1.05-1.07
	c-0.077-0.115-0.047-0.27,0.068-0.347C472.441,390.144,472.455,390.136,472.47,390.13z"/>
<path fill="#464A5F" d="M478.59,388.69l4.77-1.16c0.087-0.019,0.177,0.007,0.24,0.07l1,1c0.095,0.108,0.084,0.272-0.024,0.367
	c-0.028,0.024-0.06,0.042-0.096,0.053l-4.69,1.23c-0.087,0.023-0.179-0.004-0.24-0.07l-1.05-1.07
	c-0.101-0.094-0.107-0.252-0.013-0.353C478.515,388.726,478.551,388.703,478.59,388.69z"/>
<path fill="#464A5F" d="M484.71,387.44l4.77-1.16c0.087-0.023,0.179,0.004,0.24,0.07l1,1c0.095,0.108,0.084,0.272-0.024,0.367
	c-0.028,0.024-0.06,0.042-0.096,0.053l-4.71,1.19c-0.09,0.017-0.182-0.009-0.25-0.07l-1.05-1.01
	c-0.107-0.088-0.122-0.245-0.034-0.352C484.595,387.481,484.65,387.45,484.71,387.44z"/>
<path fill="#464A5F" d="M490.51,386.05l4.92-1.2c0.056-0.032,0.124-0.032,0.18,0l1.09,1.16c0.07,0.078,0.064,0.198-0.014,0.268
	c-0.022,0.02-0.048,0.034-0.076,0.042l-4.82,1.27c-0.057,0.024-0.122,0.024-0.18,0l-1.16-1.18c-0.095-0.045-0.134-0.159-0.089-0.254
	C490.389,386.098,490.445,386.058,490.51,386.05z"/>
<path fill="#464A5F" d="M496.37,384.79l4.92-1.19c0.056-0.032,0.124-0.032,0.18,0l1.1,1.15c0.073,0.067,0.078,0.181,0.011,0.254
	c-0.027,0.029-0.062,0.049-0.101,0.056l-4.86,1.22c-0.065,0.018-0.134-0.001-0.18-0.05l-1.16-1.17
	c-0.053-0.091-0.022-0.207,0.069-0.26C496.356,384.797,496.363,384.793,496.37,384.79z"/>
<path fill="#464A5F" d="M502.22,383.45l4.54-1c0.07-0.023,0.146,0.001,0.19,0.06l0.88,1.08c0.064,0.083,0.05,0.202-0.033,0.267
	c-0.02,0.015-0.042,0.027-0.067,0.033l-4.27,1.13c-0.064,0.01-0.13-0.009-0.18-0.05l-1.16-1.18
	c-0.089-0.044-0.125-0.152-0.081-0.241C502.073,383.481,502.145,383.442,502.22,383.45z"/>
<path fill="#464A5F" d="M507.79,382.17l4.55-1c0.07-0.015,0.142,0.008,0.19,0.06l0.88,1.08c0.064,0.083,0.05,0.202-0.033,0.267
	c-0.02,0.015-0.042,0.027-0.067,0.033l-4.27,1.13c-0.065,0.021-0.135,0.001-0.18-0.05l-1.16-1.17
	c-0.089-0.056-0.115-0.174-0.058-0.262C507.674,382.206,507.729,382.174,507.79,382.17z"/>
<path fill="#464A5F" d="M430.25,406.14l1.68,2.39c0.068,0.101,0.192,0.149,0.31,0.12l8.75-2c0.156-0.038,0.251-0.195,0.213-0.35
	c-0.01-0.04-0.028-0.077-0.053-0.109l-1.85-2.44c-0.071-0.097-0.194-0.141-0.31-0.11l-8.56,2.1
	c-0.157,0.053-0.241,0.224-0.187,0.381C430.245,406.127,430.247,406.134,430.25,406.14z"/>
<path fill="#464A5F" d="M432.9,409.35l1.68,2.67c0.065,0.105,0.19,0.157,0.31,0.13l10.57-2.52c0.156-0.034,0.256-0.189,0.221-0.345
	c-0.01-0.046-0.031-0.089-0.061-0.125l-2.09-2.59c-0.074-0.086-0.189-0.124-0.3-0.1l-10.15,2.41
	c-0.158,0.025-0.267,0.173-0.242,0.331C432.846,409.262,432.867,409.31,432.9,409.35z"/>
<path fill="#464A5F" d="M435.29,412.88l2,2.89c0.071,0.097,0.194,0.141,0.31,0.11l14-3.46c0.157-0.033,0.257-0.187,0.223-0.344
	c-0.009-0.042-0.027-0.082-0.053-0.116l-2.26-2.9c-0.071-0.09-0.189-0.129-0.3-0.1l-13.84,3.46c-0.145,0.08-0.197,0.263-0.117,0.408
	C435.264,412.847,435.276,412.864,435.29,412.88z"/>
<path fill="#464A5F" d="M467.34,409.72l2.56,3.08c0.079,0.091,0.203,0.13,0.32,0.1l30.8-7.68c0.167-0.039,0.271-0.205,0.232-0.372
	c-0.014-0.061-0.046-0.116-0.092-0.158l-3.14-3.12c-0.078-0.079-0.191-0.112-0.3-0.09l-30.22,7.73
	c-0.17,0.049-0.268,0.226-0.22,0.396C467.292,409.647,467.313,409.686,467.34,409.72z"/>
<path fill="#464A5F" d="M499.14,401.75l3,3c0.067,0.063,0.162,0.085,0.25,0.06l6.31-1.69c0.133-0.036,0.212-0.173,0.176-0.306
	c-0.012-0.043-0.035-0.082-0.066-0.114l-3.13-3.06c-0.061-0.066-0.153-0.093-0.24-0.07l-6.2,1.72
	c-0.137,0.018-0.233,0.143-0.216,0.28C499.034,401.644,499.077,401.71,499.14,401.75z"/>
<path fill="#464A5F" d="M514.39,399.88l1.37,1.45c0.056,0.032,0.124,0.032,0.18,0l4.68-1.25c0.101-0.028,0.16-0.133,0.131-0.234
	c-0.009-0.033-0.027-0.062-0.051-0.086l-1.67-1.56c-0.045-0.051-0.115-0.071-0.18-0.05l-4.38,1.37
	c-0.099-0.022-0.198,0.041-0.22,0.14C514.228,399.759,514.291,399.858,514.39,399.88L514.39,399.88z"/>
<path fill="#464A5F" d="M518.37,396.73l1.64,1.72c0.057,0.039,0.133,0.039,0.19,0l4.29-1.48c0.1-0.033,0.154-0.14,0.122-0.24
	c-0.01-0.031-0.028-0.058-0.052-0.08l-1.6-1.44c-0.048-0.045-0.115-0.064-0.18-0.05l-4.33,1.22c-0.104,0.011-0.18,0.105-0.168,0.21
	C518.288,396.647,518.321,396.699,518.37,396.73z"/>
<path fill="#464A5F" d="M521.53,399.7l-1.18-0.95c-0.082-0.065-0.096-0.185-0.031-0.267c0.023-0.03,0.055-0.052,0.091-0.063
	l4.27-1.48c0.062-0.036,0.138-0.036,0.2,0l1.33,1.3c0.074,0.066,0.081,0.18,0.015,0.254c-0.025,0.028-0.058,0.048-0.095,0.056
	l-4.44,1.15C521.639,399.722,521.581,399.722,521.53,399.7z"/>
<path fill="#464A5F" d="M525.91,397.06c0.37,0.36,1,1.06,1.27,1.3c0.055,0.034,0.125,0.034,0.18,0l4.45-1.21
	c0.097-0.022,0.158-0.118,0.136-0.215c-0.008-0.037-0.028-0.07-0.056-0.095l-1.58-1.43c-0.057-0.029-0.123-0.029-0.18,0l-4.14,1.33
	c-0.101,0.028-0.16,0.133-0.131,0.234C525.868,397.007,525.885,397.037,525.91,397.06z"/>
<path fill="#464A5F" d="M513.42,394.25l2.39,2.3c0.053,0.03,0.117,0.03,0.17,0l11.49-3c0.101-0.028,0.161-0.133,0.133-0.234
	c-0.01-0.038-0.032-0.071-0.063-0.096l-2.79-2.3c-0.053-0.028-0.117-0.028-0.17,0l-11.08,3c-0.102,0.024-0.166,0.126-0.142,0.228
	C513.367,394.188,513.389,394.224,513.42,394.25z"/>
<path fill="#464A5F" d="M512.64,390.7l2.46,2.19c0.053,0.028,0.117,0.028,0.17,0l8.64-2c0.102-0.024,0.166-0.126,0.142-0.228
	c-0.009-0.04-0.031-0.076-0.062-0.102l-2.83-2.36c-0.053-0.028-0.117-0.028-0.17,0l-8.27,2.22c-0.096,0.043-0.139,0.155-0.096,0.251
	C512.628,390.681,512.634,390.691,512.64,390.7z"/>
<path fill="#464A5F" d="M513.43,386.93l2.33,2.08c0.047,0.04,0.109,0.058,0.17,0.05l4.43-1c0.102-0.024,0.165-0.126,0.141-0.229
	c-0.008-0.035-0.026-0.066-0.051-0.091l-2.76-2.38c-0.055-0.034-0.125-0.034-0.18,0l-4,1.29c-0.093,0.034-0.141,0.137-0.107,0.231
	C513.409,386.899,513.418,386.915,513.43,386.93z"/>
<path fill="#464A5F" d="M507.36,384.88l2.26,2c0.053,0.03,0.117,0.03,0.17,0l7-1.66c0.102-0.024,0.166-0.126,0.142-0.228
	c-0.009-0.04-0.031-0.076-0.062-0.102l-2.69-2.25c-0.053-0.03-0.117-0.03-0.17,0l-6.6,1.86c-0.105-0.014-0.201,0.06-0.215,0.165
	S507.255,384.866,507.36,384.88z"/>
<path fill="#FBBEBE" d="M446.39,276.06c-4.31,5.126-8.359,10.466-12.13,16c-1.457,2.312-3.099,4.503-4.91,6.55
	c-2.59,2.73-5.83,4.78-8.48,7.46c-3.07,3.11-5.25,7-7.39,10.79c-1.478,2.534-2.813,5.148-4,7.83
	c-3.357,8.034-3.972,16.951-1.75,25.37c0.81,3,2.43,6.38,5.49,7.09c2.4,0.56,4.8-0.72,6.9-2c2.26-1.37,4.58-2.87,5.91-5.16
	c0.985-1.969,1.569-4.114,1.72-6.31l2.63-19.25c0.183-2.055,0.651-4.074,1.39-6c1.51-3.44,4.65-5.89,7.94-7.7s6.84-3.16,10-5.22
	c2.94-1.92,5.47-4.42,8.41-6.34c3.61-2.37,7.8-3.84,11.09-6.63s5.52-7.63,3.5-11.44c-0.939-1.496-2.166-2.791-3.61-3.81l-6.43-5.18
	c-1.37-1.1-4.2-4.43-5.93-4.65s-4.35,2.4-5.51,3.43C449.493,272.493,447.876,274.221,446.39,276.06z"/>
<path fill="#5263F3" d="M424.44,246.8c1.363,0.203,2.702,0.538,4,1c1.31,0.53,2.51,1.33,3.83,1.83
	c1.711,0.514,3.451,0.928,5.21,1.24c1.776,0.329,3.356,1.333,4.41,2.8c-2.916,0.709-5.506,2.383-7.35,4.75
	c-1.329,1.854-2.364,3.901-3.07,6.07c-2.335,6.454-3.684,13.224-4,20.08c-0.06,1.2,0,2.58,0.9,3.37c-4.45-3.61-10.74-3.5-16.46-3.24
	c-0.537,0.063-1.08,0.018-1.6-0.13c-0.562-0.258-1.048-0.658-1.41-1.16c-1.581-1.932-2.617-4.253-3-6.72
	c-0.54-3.53,0.28-7.11,1-10.61c0.757-3.375,1.192-6.813,1.3-10.27c0.05-3.52-1.06-6.36-1.64-9.71c-0.71-4.05,3.81-2.06,6.23-1.59
	L424.44,246.8z"/>
</svg>
