<svg height="100%" width="100%" id="svg" viewBox="0 0 1440 500" xmlns="http://www.w3.org/2000/svg" class="transition duration-300 ease-in-out delay-150"><defs><linearGradient id="gradient"><stop offset="5%" stop-color="#7f4ee966"></stop><stop offset="95%" stop-color="#5263f366"></stop></linearGradient></defs><path d="M 0,500 C 0,500 0,125 0,125 C 93.4025641025641,127.46410256410256 186.8051282051282,129.92820512820512 255,137 C 323.1948717948718,144.07179487179488 366.18205128205125,155.75128205128206 448,150 C 529.8179487179488,144.24871794871794 650.4666666666666,121.06666666666666 727,123 C 803.5333333333334,124.93333333333334 835.9512820512822,151.98205128205126 920,163 C 1004.0487179487178,174.01794871794874 1139.728205128205,169.00512820512822 1235,160 C 1330.271794871795,150.99487179487178 1385.1358974358975,137.99743589743588 1440,125 C 1440,125 1440,500 1440,500 Z" stroke="none" stroke-width="0" fill="url(#gradient)" class="transition-all duration-300 ease-in-out delay-150"></path><defs><linearGradient id="gradient"><stop offset="5%" stop-color="#7f4ee988"></stop><stop offset="95%" stop-color="#5263f388"></stop></linearGradient></defs><path d="M 0,500 C 0,500 0,250 0,250 C 79.37179487179486,229.85897435897436 158.74358974358972,209.71794871794873 251,209 C 343.2564102564103,208.28205128205127 448.3974358974359,226.98717948717945 511,243 C 573.6025641025641,259.01282051282055 593.6666666666666,272.33333333333337 678,261 C 762.3333333333334,249.66666666666666 910.9358974358975,213.67948717948718 997,207 C 1083.0641025641025,200.32051282051282 1106.5897435897436,222.94871794871796 1170,235 C 1233.4102564102564,247.05128205128204 1336.7051282051282,248.52564102564102 1440,250 C 1440,250 1440,500 1440,500 Z" stroke="none" stroke-width="0" fill="url(#gradient)" class="transition-all duration-300 ease-in-out delay-150"></path><defs><linearGradient id="gradient"><stop offset="5%" stop-color="#7f4ee9ff"></stop><stop offset="95%" stop-color="#5263f3ff"></stop></linearGradient></defs><path d="M 0,500 C 0,500 0,375 0,375 C 98.8179487179487,376.16666666666663 197.6358974358974,377.3333333333333 272,375 C 346.3641025641026,372.6666666666667 396.27435897435896,366.83333333333337 461,375 C 525.725641025641,383.16666666666663 605.2666666666667,405.33333333333337 699,402 C 792.7333333333333,398.66666666666663 900.6589743589741,369.8333333333333 976,364 C 1051.341025641026,358.1666666666667 1094.097435897436,375.3333333333333 1166,381 C 1237.902564102564,386.6666666666667 1338.9512820512819,380.83333333333337 1440,375 C 1440,375 1440,500 1440,500 Z" stroke="none" stroke-width="0" fill="url(#gradient)" class="transition-all duration-300 ease-in-out delay-150"></path></svg>